<svg version="1.1" xmlns="http://www.w3.org/2000/svg" xmlns:xlink="http://www.w3.org/1999/xlink" width="242.18915" height="32.62059" viewBox="0,0,242.18915,32.62059"><g transform="translate(-193.67305,-14.40446)"><g stroke-miterlimit="10"><g fill="#ffffff"><path d="M193.67306,30.71476c0,-8.92901 8.52303,-16.1674 19.03673,-16.1674c10.5137,0 19.03673,7.23839 19.03673,16.1674c0,8.92901 -8.52304,16.1674 -19.03673,16.1674c-10.5137,0 -19.03673,-7.23839 -19.03673,-16.1674z" stroke="none" stroke-width="NaN"/><path d="M212.70978,46.56255v-31.69559h204.11571v31.69559z" stroke="#ffffff" stroke-width="0.925"/><path d="M397.78875,30.71476c0,-8.92901 8.52304,-16.1674 19.03673,-16.1674c10.51369,0 19.03673,7.23839 19.03673,16.1674c0,8.92901 -8.52304,16.1674 -19.03673,16.1674c-10.51369,0 -19.03673,-7.23839 -19.03673,-16.1674z" stroke="none" stroke-width="NaN"/></g><text transform="translate(225.81726,35.73784) scale(0.41859,0.41859)" font-size="40" xml:space="preserve" fill="#000000" stroke="none" stroke-width="1" font-family="Pixel" font-weight="normal" text-anchor="start"><tspan x="0" dy="0">Repair Kit was used.</tspan></text><text transform="translate(225.81726,35.73784) scale(0.41859,0.41859)" font-size="40" xml:space="preserve" fill="#345bff" stroke="none" stroke-width="1" font-family="Pixel" font-weight="normal" text-anchor="start"><tspan x="0" dy="0">Repair Kit</tspan></text></g></g></svg>