<svg version="1.1" xmlns="http://www.w3.org/2000/svg" xmlns:xlink="http://www.w3.org/1999/xlink" width="283.08174" height="52.9915" viewBox="0,0,283.08174,52.9915"><g transform="translate(-167.30682,-8.49333)"><g stroke-miterlimit="10"><path d="M189.61144,61.02232v-51.66835h239.15464v51.66836z" fill="#ffffff" stroke="#ffffff" stroke-width="0.925"/><path d="M405.77932,35.28873c0,-14.35345 9.98612,-25.98924 22.30462,-25.98924c12.3185,0 22.30462,11.63579 22.30462,25.98924c0,14.35346 -9.98612,25.98924 -22.30462,25.98924c-12.3185,0 -22.30462,-11.63579 -22.30462,-25.98924z" fill="#ffffff" stroke="none" stroke-width="NaN"/><path d="M167.30682,34.48258c0,-14.35345 9.98612,-25.98925 22.30462,-25.98925c12.3185,0 22.30462,11.63579 22.30462,25.98925c0,14.35345 -9.98612,25.98924 -22.30462,25.98924c-12.3185,0 -22.30462,-11.63578 -22.30462,-25.98924z" fill="#ffffff" stroke="none" stroke-width="NaN"/><text transform="translate(223.37781,30.70097) scale(0.41859,0.41859)" font-size="40" xml:space="preserve" fill="#000000" stroke="none" stroke-width="1" font-family="Pixel" font-weight="normal" text-anchor="start"><tspan x="0" dy="0">Press [ to shift to </tspan><tspan x="0" dy="48px">              drive!</tspan></text><text transform="translate(223.37781,30.70097) scale(0.41859,0.41859)" font-size="40" xml:space="preserve" fill="#ff0000" stroke="none" stroke-width="1" font-family="Pixel" font-weight="normal" text-anchor="start"><tspan x="0" dy="0">              [</tspan></text></g></g></svg>