<svg version="1.1" xmlns="http://www.w3.org/2000/svg" xmlns:xlink="http://www.w3.org/1999/xlink" width="388.14753" height="68.35818" viewBox="0,0,388.14753,68.35818"><g transform="translate(-125.92623,-17.22465)"><g stroke-miterlimit="10"><path d="M453.05484,51.53501c0,-18.73291 13.65955,-33.91896 30.50946,-33.91896c16.84991,0 30.50946,15.18605 30.50946,33.91896c0,18.73291 -13.65955,33.91896 -30.50946,33.91896c-16.84991,0 -30.50946,-15.18605 -30.50946,-33.91896z" fill="#ffffff" stroke="none" stroke-width="NaN"/><path d="M125.92624,51.56042c0,-18.73291 13.65955,-33.91897 30.50946,-33.91897c16.84991,0 30.50946,15.18606 30.50946,33.91897c0,18.73291 -13.65955,33.91896 -30.50946,33.91896c-16.84991,0 -30.50946,-15.18605 -30.50946,-33.91896z" fill="#ffffff" stroke="none" stroke-width="NaN"/><path d="M156.4357,85.12032v-67.43316h327.12862v67.43317z" fill="#ffffff" stroke="#ffffff" stroke-width="0.925"/><text transform="translate(233.14259,44.70013) scale(0.41859,0.41859)" font-size="40" xml:space="preserve" fill="#000000" stroke="none" stroke-width="1" font-family="Pixel" font-weight="normal" text-anchor="start"><tspan x="0" dy="0">The engine has died.</tspan></text><text transform="translate(158.84286,71.55198) scale(0.41859,0.41859)" font-size="40" xml:space="preserve" fill="#000000" stroke="none" stroke-width="1" font-family="Pixel" font-weight="normal" text-anchor="start"><tspan x="0" dy="0">Score will be displayed when stopped.</tspan></text></g></g></svg>