<svg version="1.1" xmlns="http://www.w3.org/2000/svg" xmlns:xlink="http://www.w3.org/1999/xlink" width="32.22223" height="32.22222" viewBox="0,0,32.22223,32.22222"><g transform="translate(-303.88888,-163.88889)"><g data-paper-data="{&quot;isPaintingLayer&quot;:true}" fill-rule="nonzero" stroke="none" stroke-linecap="butt" stroke-linejoin="miter" stroke-miterlimit="10" stroke-dasharray="" stroke-dashoffset="0" style="mix-blend-mode: normal"><path d="M314.36868,191.69192c-2.5,0 -2.5,-2.5 -2.5,-2.5v-1.81818c0,-4.1916 0.83187,-8.69559 -1.46192,-12.35012c0,0 -1.28623,-2.14373 0.8575,-3.42997c2.14373,-1.28624 3.42997,0.8575 3.42997,0.8575c2.76201,4.75379 2.17445,9.58077 2.17445,14.9226v1.81818c0,0 0,2.5 -2.5,2.5z" fill="#ffffff" stroke-width="0.5"/><g><path d="M303.88889,196.11111v-32.22222h32.22223v32.22222z" fill="#ffffff" stroke-width="0"/><path d="M328.87535,183.79582c0,1.85962 -1.38328,2.33597 -2.09193,2.45798c-1.64533,1.27146 -3.03267,3.08684 -5.03509,3.53745c-1.64984,0.37126 -3.68989,0.62768 -5.06028,-0.3632c-1.3455,-0.97289 -1.34745,-3.04301 -1.8424,-4.62791c-1.22661,-3.92781 -1.24932,-7.52173 -3.36818,-11.12761c0,0 -1.24034,-2.17061 0.93027,-3.41096c2.17061,-1.24034 3.41095,0.93027 3.41095,0.93027c1.86253,3.33264 2.59745,6.08706 3.45001,9.78147c0.33606,1.45629 0.04126,3.01996 0.43032,4.463c0.04651,0.17252 0.26221,-0.24283 0.39427,-0.3632c0.54091,-0.49308 1.04077,-1.03575 1.62461,-1.47716c0.90036,-0.68071 1.87743,-1.2535 2.81615,-1.88026l1.8413,-0.41988c0,0 2.5,0 2.5,2.5z" fill="#ff0000" stroke-width="0.5"/></g></g></g></svg>