<svg version="1.1" xmlns="http://www.w3.org/2000/svg" xmlns:xlink="http://www.w3.org/1999/xlink" width="44.60924" height="44.60924" viewBox="0,0,44.60924,44.60924"><g transform="translate(-297.69538,-157.69538)"><g stroke="none" stroke-miterlimit="10"><path d="M297.69538,180c0,-12.3185 9.98612,-22.30462 22.30462,-22.30462c12.3185,0 22.30462,9.98612 22.30462,22.30462c0,12.3185 -9.98612,22.30462 -22.30462,22.30462c-12.3185,0 -22.30462,-9.98612 -22.30462,-22.30462z" fill="#ffccfc" stroke-width="NaN"/><path d="M316.91045,187.56327c-1.5,2 -3.5,0.5 -3.5,0.5l-0.81753,-0.61482c-2.79075,-1.95694 -6.62576,-3.15402 -7.24193,-7.11208c-0.36091,-2.31834 1.17167,-4.54909 1.57334,-6.86072c0,0 0.43446,-2.46196 2.89642,-2.02749c2.46196,0.43446 2.0275,2.89642 2.0275,2.89642c-0.20957,1.17148 -0.67776,2.28952 -1.04505,3.4259l0.18642,-0.09866c7.19751,-1.75231 16.73117,-1.53469 22.71795,3.12479c0,0 1.95218,1.56174 0.39044,3.51391c-1.56174,1.95217 -3.51391,0.39043 -3.51391,0.39043c-4.13907,-3.43992 -11.67011,-3.58031 -17.07585,-2.47895c0.94153,0.5489 1.77141,1.00409 1.952,1.13029l0.95021,0.71098c0,0 2,1.5 0.5,3.5z" fill="#000000" stroke-width="0.5"/></g></g></svg>