<svg version="1.1" xmlns="http://www.w3.org/2000/svg" xmlns:xlink="http://www.w3.org/1999/xlink" width="20.17966" height="15.70699" viewBox="0,0,20.17966,15.70699"><g transform="translate(-309.91017,-172.14635)"><g data-paper-data="{&quot;isPaintingLayer&quot;:true}" fill="none" fill-rule="nonzero" stroke="#ffffff" stroke-width="1" stroke-linecap="butt" stroke-linejoin="miter" stroke-miterlimit="10" stroke-dasharray="" stroke-dashoffset="0" style="mix-blend-mode: normal"><path d="M323.72589,181.74109c0,0 -7.97554,0.00337 -11.59777,0.00337c-0.94883,0 -1.71795,-0.76929 -1.71795,-1.71795c0,-0.94883 0.76911,-1.71781 1.71795,-1.71781c3.03683,0 11.58844,-0.00355 11.58844,-0.00355c0,0 -0.57412,-0.58101 -3.22271,-3.22942c-0.67094,-0.67097 -0.67094,-1.75858 0,-2.42938c0.67129,-0.6708 1.75876,-0.67097 2.42956,0c2.14763,2.14731 6.16332,6.16345 6.16332,6.16345c0.6708,0.67097 0.6708,1.75872 0,2.42938c0,0 -3.46543,3.46557 -6.11398,6.11416c-0.67129,0.67129 -1.75889,0.67129 -2.42956,0c-0.67097,-0.67084 -0.67097,-1.75876 0,-2.42907c2.14766,-2.14829 3.1827,-3.18319 3.1827,-3.18319z"/></g></g></svg>