<svg version="1.1" xmlns="http://www.w3.org/2000/svg" xmlns:xlink="http://www.w3.org/1999/xlink" width="60.47475" height="54.33835" viewBox="0,0,60.47475,54.33835"><defs><radialGradient cx="319.15938" cy="173.67089" r="42.4565" gradientUnits="userSpaceOnUse" id="color-1"><stop offset="0" stop-color="#006622"/><stop offset="1" stop-color="#009933"/></radialGradient><radialGradient cx="315.24988" cy="171.55534" r="42.4565" gradientUnits="userSpaceOnUse" id="color-2"><stop offset="0" stop-color="#006622"/><stop offset="1" stop-color="#009933"/></radialGradient><radialGradient cx="311.55535" cy="184.75013" r="42.4565" gradientUnits="userSpaceOnUse" id="color-3"><stop offset="0" stop-color="#006622"/><stop offset="1" stop-color="#009933"/></radialGradient></defs><g transform="translate(-289.76263,-152.83083)"><g data-paper-data="{&quot;isPaintingLayer&quot;:true}" fill-rule="nonzero" stroke="none" stroke-width="0.86553" stroke-linecap="round" stroke-linejoin="miter" stroke-miterlimit="10" stroke-dasharray="" stroke-dashoffset="0" style="mix-blend-mode: normal"><path d="M308.98738,162.23459c2.943,-0.2993 2.28,4.6087 5.5,4.9765c4.646,0.5202 9.72,-4.5889 13.5,-2.9647c6.198,2.6732 7.515,9.2626 11.699,13.0461c3.296,2.9435 10.551,5.1727 10.551,8.4833c0,3.3106 -5.373,7.6645 -10.551,8.4833c-4.631,0.7228 -8.869,-3.7581 -13.449,-3.3303c-2.309,0.1898 -1.367,3.4694 -3.5,4.5176c-2.162,1.4019 -5.427,2.3915 -8.5,2.3294c-6.368,-0.1299 -11.766,-0.648 -16.5,-2.8235c-3.895,-1.7894 -6.224,-4.7315 -6.75,-7.7294c-1.043,-5.9351 -2.543,-12.6473 1,-18c3.241,-4.0659 10.827,-6.36 17,-6.9883z" fill="url(#color-1)"/><path d="M299.9705,170.66134c1.86938,-2.29265 4.87105,1.64664 7.408,-0.37017c3.65306,-2.91738 3.62824,-10.11792 7.44958,-11.6423c6.27289,-2.49241 11.86355,1.23574 17.49743,0.95254c4.41199,-0.24926 11.11833,-3.80303 13.45928,-1.46208c2.34095,2.34095 1.62034,9.2189 -1.46208,13.45928c-2.76351,3.78571 -8.92871,3.61395 -11.86476,7.155c-1.4985,1.76692 1.48662,3.41985 0.71955,5.6693c-0.53747,2.52006 -2.14642,5.52851 -4.36327,7.65754c-4.59471,4.411 -8.77802,7.86161 -13.66378,9.67075c-4.01948,1.48888 -7.74671,1.05536 -10.23848,-0.69254c-4.93426,-3.45924 -10.74116,-7.14482 -12.02082,-13.43503c-0.58329,-5.16676 3.15865,-12.15304 7.07934,-16.96229z" fill="url(#color-2)"/><path d="M310.66135,200.02951c-2.29265,-1.86938 1.64664,-4.87105 -0.37017,-7.40801c-2.91738,-3.65305 -10.11792,-3.62823 -11.6423,-7.44958c-2.49241,-6.27288 1.23573,-11.86355 0.95254,-17.49743c-0.24926,-4.41199 -3.80303,-11.11834 -1.46208,-13.45929c2.34095,-2.34095 9.2189,-1.62034 13.45929,1.46209c3.78571,2.76351 3.61395,8.92871 7.155,11.86476c1.76692,1.4985 3.41985,-1.48662 5.6693,-0.71955c2.52006,0.53747 5.52851,2.14642 7.65754,4.36327c4.411,4.59471 7.86161,8.77802 9.67075,13.66378c1.48889,4.01948 1.05536,7.74671 -0.69254,10.23848c-3.45924,4.93426 -7.14482,10.74116 -13.43503,12.02081c-5.16676,0.58329 -12.15304,-3.15864 -16.96229,-7.07934z" fill="url(#color-3)"/></g></g></svg>