<svg version="1.1" xmlns="http://www.w3.org/2000/svg" xmlns:xlink="http://www.w3.org/1999/xlink" width="837.34231" height="240.01563" viewBox="0,0,837.34231,240.01563"><g transform="translate(96.99408,-198.21647)"><g data-paper-data="{&quot;isPaintingLayer&quot;:true}" fill-rule="nonzero" stroke-linecap="butt" stroke-linejoin="miter" stroke-miterlimit="10" stroke-dasharray="" stroke-dashoffset="0" style="mix-blend-mode: normal"><path d="M-96.99408,438.23211v-200.46917h837.34231v200.46917z" fill="#ff0000" stroke="#000000" stroke-width="0"/><path d="M60.90145,268.59776c0,-38.87051 31.51077,-70.38129 70.38128,-70.38129c38.87051,0 70.38129,31.51078 70.38129,70.38129c0,38.87051 -31.51078,70.38128 -70.38129,70.38128c-38.87051,0 -70.38128,-31.51077 -70.38128,-70.38128z" fill="none" stroke="none" stroke-width="0"/><path d="M562.71458,298.71858c0,-1.8289 1.48261,-3.31152 3.31152,-3.31152c1.8289,0 3.31152,1.48262 3.31152,3.31152c0,1.8289 -1.48262,3.31152 -3.31152,3.31152c-1.8289,0 -3.31152,-1.48262 -3.31152,-3.31152z" fill="#000000" stroke="none" stroke-width="0"/><g stroke="none"><path d="M14.97468,298.71858c0,-30.47053 24.70124,-55.17177 55.17177,-55.17177c30.47052,0 55.17177,24.70124 55.17177,55.17177c0,30.47053 -24.70124,55.17177 -55.17177,55.17177c-30.47052,0 -55.17176,-24.70124 -55.17176,-55.17177z" fill="#ffffff" stroke-width="0"/><path d="M66.83493,298.71858c0,-1.8289 1.48261,-3.31152 3.31152,-3.31152c1.8289,0 3.31152,1.48262 3.31152,3.31152c0,1.8289 -1.48262,3.31152 -3.31152,3.31152c-1.8289,0 -3.31151,-1.48262 -3.31151,-3.31152z" fill="#000000" stroke-width="0"/><text transform="translate(36.45587,342.35721) scale(0.22077,0.22077)" font-size="40" xml:space="preserve" fill="#000000" fill-rule="nonzero" stroke="none" stroke-width="1" stroke-linecap="butt" stroke-linejoin="miter" stroke-miterlimit="10" stroke-dasharray="" stroke-dashoffset="0" font-family="Pixel" font-weight="normal" text-anchor="start" style="mix-blend-mode: normal"><tspan x="0" dy="0">0</tspan></text><text transform="translate(107.68127,301.26572) scale(0.22077,0.22077)" font-size="40" xml:space="preserve" fill="#000000" fill-rule="nonzero" stroke="none" stroke-width="1" stroke-linecap="butt" stroke-linejoin="miter" stroke-miterlimit="10" stroke-dasharray="" stroke-dashoffset="0" font-family="Pixel" font-weight="normal" text-anchor="start" style="mix-blend-mode: normal"><tspan x="0" dy="0">160</tspan></text><text transform="translate(33.14428,266.2582) scale(0.22077,0.22077)" font-size="40" xml:space="preserve" fill="#000000" fill-rule="nonzero" stroke="none" stroke-width="1" stroke-linecap="butt" stroke-linejoin="miter" stroke-miterlimit="10" stroke-dasharray="" stroke-dashoffset="0" font-family="Pixel" font-weight="normal" text-anchor="start" style="mix-blend-mode: normal"><tspan x="0" dy="0">80</tspan></text></g><path d="M510.85432,298.71858c0,-30.47053 24.70124,-55.17177 55.17177,-55.17177c30.47052,0 55.17177,24.70124 55.17177,55.17177c0,30.47053 -24.70124,55.17177 -55.17177,55.17177c-30.47053,0 -55.17177,-24.70124 -55.17177,-55.17177z" fill="#ffffff" stroke="none" stroke-width="0"/><path d="M562.71458,298.71858c0,-1.8289 1.48262,-3.31152 3.31152,-3.31152c1.8289,0 3.31152,1.48262 3.31152,3.31152c0,1.8289 -1.48262,3.31152 -3.31152,3.31152c-1.8289,0 -3.31152,-1.48262 -3.31152,-3.31152z" fill="#000000" stroke="none" stroke-width="0"/><text transform="translate(532.33551,342.35721) scale(0.22077,0.22077)" font-size="40" xml:space="preserve" fill="#000000" fill-rule="nonzero" stroke="none" stroke-width="1" stroke-linecap="butt" stroke-linejoin="miter" stroke-miterlimit="10" stroke-dasharray="" stroke-dashoffset="0" font-family="Pixel" font-weight="normal" text-anchor="start" style="mix-blend-mode: normal"><tspan x="0" dy="0">0</tspan></text><text transform="translate(612.32734,301.51617) scale(0.22077,0.22077)" font-size="40" xml:space="preserve" fill="#000000" fill-rule="nonzero" stroke="none" stroke-width="1" stroke-linecap="butt" stroke-linejoin="miter" stroke-miterlimit="10" stroke-dasharray="" stroke-dashoffset="0" font-family="Pixel" font-weight="normal" text-anchor="start" style="mix-blend-mode: normal"><tspan x="0" dy="0">8</tspan></text><text transform="translate(529.02393,266.2582) scale(0.22077,0.22077)" font-size="40" xml:space="preserve" fill="#000000" fill-rule="nonzero" stroke="none" stroke-width="1" stroke-linecap="butt" stroke-linejoin="miter" stroke-miterlimit="10" stroke-dasharray="" stroke-dashoffset="0" font-family="Pixel" font-weight="normal" text-anchor="start" style="mix-blend-mode: normal"><tspan x="0" dy="0">4</tspan></text><path d="M269.12944,323.54088v-19.37544h100.64713v19.37544z" fill-opacity="0.67451" fill="#ffffff" stroke="#000000" stroke-width="0"/><text transform="translate(47.64645,288.88806) scale(0.5,0.5)" font-size="40" xml:space="preserve" fill-opacity="0.33333" fill="#000000" fill-rule="nonzero" stroke="none" stroke-width="1" stroke-linecap="butt" stroke-linejoin="miter" stroke-miterlimit="10" stroke-dasharray="" stroke-dashoffset="0" font-family="Pixel" font-weight="normal" text-anchor="start" style="mix-blend-mode: normal"><tspan x="0" dy="0">MPH</tspan></text><text transform="translate(545.0276,288.16211) scale(0.5,0.5)" font-size="40" xml:space="preserve" fill-opacity="0.33333" fill="#000000" fill-rule="nonzero" stroke="none" stroke-width="1" stroke-linecap="butt" stroke-linejoin="miter" stroke-miterlimit="10" stroke-dasharray="" stroke-dashoffset="0" font-family="Pixel" font-weight="normal" text-anchor="start" style="mix-blend-mode: normal"><tspan x="0" dy="0">RPM</tspan></text></g></g></svg>