<svg version="1.1" xmlns="http://www.w3.org/2000/svg" xmlns:xlink="http://www.w3.org/1999/xlink" width="7.50163" height="7.50163" viewBox="0,0,7.50163,7.50163"><g transform="translate(-316.2492,-176.2492)"><g data-paper-data="{&quot;isPaintingLayer&quot;:true}" fill-rule="nonzero" stroke-linecap="butt" stroke-linejoin="miter" stroke-miterlimit="10" stroke-dasharray="" stroke-dashoffset="0" style="mix-blend-mode: normal"><path d="M316.24921,183.75084v-7.50163h7.50163v7.50163z" fill="#ffffff" stroke="none" stroke-width="0"/><path d="M321.82019,179.51636c-0.25,0 -0.25,-0.25 -0.25,-0.25v-0.10753c0,-0.38361 -0.04354,-0.59545 -0.183,-0.95279c-0.97278,-1.27264 -3.11775,-0.7716 -3.08044,1.06032c0,0 0,0.25 -0.25,0.25c-0.25,0 -0.25,-0.25 -0.25,-0.25c0.03295,-2.30886 2.73744,-3.03612 4.01632,-1.30528c0.17656,0.43296 0.24712,0.73134 0.24712,1.19775v0.10753c0,0 0,0.25 -0.25,0.25z" fill="#000000" stroke="none" stroke-width="0.5"/><path d="M318.45998,182.4384v-2.7957h2.95699v2.7957z" fill="#000000" stroke="#000000" stroke-width="1.5"/><path d="M319.51572,181.32841c-0.01939,-0.03524 -0.03848,-0.07553 -0.05721,-0.12118c-0.56511,-0.59946 -0.79796,-1.68446 0.59339,-1.92483c0,0 0.13359,-0.02199 0.18982,0.11925c0.09434,-0.02426 0.1559,0.02689 0.19053,0.12749c0.21108,0.12878 0.38083,0.40489 0.42952,0.8663c-0.00274,0.85505 -0.27535,1.18768 -0.61028,1.21157c-0.00015,0.00161 -0.0003,0.00321 -0.00045,0.00481c0.09939,0.67786 -0.02233,1.44234 -0.32528,1.1063c-0.07559,0.07522 -0.18347,0.08039 -0.33575,-0.02204c-0.40227,-0.27059 -0.30078,-0.95417 -0.07429,-1.36766z" fill="#ffffff" stroke="none" stroke-width="0.5"/></g></g></svg>