<svg version="1.1" xmlns="http://www.w3.org/2000/svg" xmlns:xlink="http://www.w3.org/1999/xlink" width="31.7647" height="31.7647" viewBox="0,0,31.7647,31.7647"><g transform="translate(-304.11765,-164.11765)"><g data-paper-data="{&quot;isPaintingLayer&quot;:true}" fill-rule="nonzero" stroke="none" stroke-linecap="butt" stroke-linejoin="miter" stroke-miterlimit="10" stroke-dasharray="" stroke-dashoffset="0" style="mix-blend-mode: normal"><path d="M304.11765,180c0,-8.77158 7.11077,-15.88235 15.88235,-15.88235c8.77158,0 15.88235,7.11077 15.88235,15.88235c0,8.77158 -7.11077,15.88235 -15.88235,15.88235c-8.77158,0 -15.88235,-7.11078 -15.88235,-15.88235z" fill-opacity="0.66275" fill="#d720ff" stroke-width="0"/><text transform="translate(313.59,187.08454) scale(0.5,0.5)" font-size="40" xml:space="preserve" fill="#ffffff" fill-rule="nonzero" stroke="none" stroke-width="1" stroke-linecap="butt" stroke-linejoin="miter" stroke-miterlimit="10" stroke-dasharray="" stroke-dashoffset="0" font-family="&quot;DynaPuff&quot;, Pixel" font-weight="normal" text-anchor="start" style="mix-blend-mode: normal"><tspan x="0" dy="0">U</tspan></text><path d="M331.78494,185.7199c0,1 -1,1 -1,1h-0.42457c-0.19152,-0.00035 -0.38148,0.00344 -0.57037,0.01057c-0.02397,0.51337 -0.06618,1.02578 -0.13795,1.53673l0.01005,0.28315c0,0 0,1 -1,1c-1,0 -1,-1 -1,-1l0.01005,-0.56599c0.05243,-0.36006 0.08785,-0.72166 0.11128,-1.0843c-0.28157,0.03183 -0.56459,0.06496 -0.85069,0.09676c0,0 -0.99388,0.11043 -1.10432,-0.88345c-0.11043,-0.99388 0.88345,-1.10432 0.88345,-1.10432c0.37379,-0.04152 0.74283,-0.08432 1.11024,-0.12383c-0.00589,-0.57145 -0.01849,-1.14303 -0.01849,-1.71274c0,0 0,-1 1,-1c1,0 1,1 1,1c0,0.51919 0.00795,1.03851 0.01229,1.55746c0.18043,-0.00623 0.36179,-0.00975 0.54446,-0.01005h0.42457c0,0 1,0 1,1z" fill="#ffffff" stroke-width="0.5"/></g></g></svg>