<svg version="1.1" xmlns="http://www.w3.org/2000/svg" xmlns:xlink="http://www.w3.org/1999/xlink" width="492.56813" height="113.8067" viewBox="0,0,492.56813,113.8067"><g transform="translate(-73.16894,-241.81502)"><g data-paper-data="{&quot;isPaintingLayer&quot;:true}" fill-opacity="0.60392" fill="#9966ff" fill-rule="nonzero" stroke="none" stroke-width="NaN" stroke-linecap="butt" stroke-linejoin="miter" stroke-miterlimit="10" stroke-dasharray="" stroke-dashoffset="0" style="mix-blend-mode: normal"><path d="M73.16894,355.62093c0,0 9.67253,-0.78902 19.77271,-4.84242c5.74517,-2.30565 11.24578,-6.05043 16.14092,-10.34938c13.44326,-11.80595 17.97503,-32.11286 17.97503,-41.7201c0,-4.02625 -0.55109,-11.76385 -2.89836,-18.79573c-2.85588,-8.55554 -8.12504,-16.63956 -15.18497,-22.98174c-14.03094,-12.60449 -35.80534,-15.11534 -35.80534,-15.11534h492.56813c0,0 -6.73041,-0.1227 -14.79548,2.11208c-6.87545,1.90514 -14.61301,5.6746 -21.14836,11.05485c-6.69918,5.51512 -12.49111,12.92853 -15.89897,20.60392c-3.77605,8.50464 -4.80489,17.241 -4.80489,22.11933c0,4.22304 0.4437,11.50602 2.8606,19.07493c2.67595,8.38013 7.78369,16.47131 14.4715,23.14914c6.96093,6.13072 15.40999,10.74247 22.95067,13.06864c8.89261,2.74322 16.36494,2.62182 16.36494,2.62182z" stroke-width="NaN"/></g></g></svg>