<svg version="1.1" xmlns="http://www.w3.org/2000/svg" xmlns:xlink="http://www.w3.org/1999/xlink" width="283.76387" height="44.65238" viewBox="0,0,283.76387,44.65238"><g transform="translate(-178.11813,-157.67381)"><g stroke-miterlimit="10"><path d="M178.11813,180c0,-12.3185 9.98612,-22.30462 22.30462,-22.30462c12.3185,0 22.30462,9.98612 22.30462,22.30462c0,12.3185 -9.98612,22.30462 -22.30462,22.30462c-12.3185,0 -22.30462,-9.98612 -22.30462,-22.30462z" fill="#ffffff" stroke="none" stroke-width="NaN"/><path d="M200.42274,201.86369v-43.72738h239.15464v43.72738z" fill="#ffffff" stroke="#ffffff" stroke-width="0.925"/><path d="M417.27275,180c0,-12.3185 9.98612,-22.30462 22.30462,-22.30462c12.3185,0 22.30462,9.98612 22.30462,22.30462c0,12.3185 -9.98612,22.30462 -22.30462,22.30462c-12.3185,0 -22.30462,-9.98612 -22.30462,-22.30462z" fill="#ffffff" stroke="none" stroke-width="NaN"/><text transform="translate(227.36485,193.50125) scale(0.25727,0.25727)" font-size="40" xml:space="preserve" fill="#000000" stroke="none" stroke-width="1" font-family="Pixel" font-weight="normal" text-anchor="start"><tspan x="0" dy="0">This engine can go up to 20,000 RPM!</tspan></text><path d="M184.55832,180c0,-8.76168 7.10275,-15.86443 15.86443,-15.86443c8.76168,0 15.86443,7.10275 15.86443,15.86443c0,8.76168 -7.10275,15.86443 -15.86443,15.86443c-8.76168,0 -15.86443,-7.10275 -15.86443,-15.86443z" fill="#000000" stroke="none" stroke-width="0"/><text transform="translate(197.23822,184.24128) scale(0.27503,0.27503)" font-size="40" xml:space="preserve" fill="#ffffff" stroke="none" stroke-width="1" font-family="Pixel" font-weight="normal" text-anchor="start"><tspan x="0" dy="0">0</tspan></text><text transform="translate(278.54193,178.9172) scale(0.38051,0.38051)" font-size="40" xml:space="preserve" fill="#000000" stroke="none" stroke-width="1" font-family="Pixel" font-weight="normal" text-anchor="start"><tspan x="0" dy="0">Money Shift</tspan></text></g></g></svg>