<svg version="1.1" xmlns="http://www.w3.org/2000/svg" xmlns:xlink="http://www.w3.org/1999/xlink" width="283.76387" height="47.19121" viewBox="0,0,283.76387,47.19121"><g transform="translate(-178.11807,-10.42371)"><g stroke-miterlimit="10"><path d="M178.11807,35.28873c0,-12.3185 9.98612,-22.30462 22.30462,-22.30462c12.3185,0 22.30462,9.98612 22.30462,22.30462c0,12.3185 -9.98612,22.30462 -22.30462,22.30462c-12.3185,0 -22.30462,-9.98612 -22.30462,-22.30462z" fill="#ffffff" stroke="none" stroke-width="NaN"/><path d="M200.42268,57.15242v-43.72738h239.15464v43.72738z" fill="#ffffff" stroke="#ffffff" stroke-width="0.925"/><path d="M417.2727,35.28873c0,-12.3185 9.98612,-22.30462 22.30462,-22.30462c12.3185,0 22.30462,9.98612 22.30462,22.30462c0,12.3185 -9.98612,22.30462 -22.30462,22.30462c-12.3185,0 -22.30462,-9.98612 -22.30462,-22.30462z" fill="#ffffff" stroke="none" stroke-width="NaN"/><text transform="translate(231.70015,31.72994) scale(0.41859,0.41859)" font-size="40" xml:space="preserve" fill="#000000" stroke="none" stroke-width="1" font-family="Pixel" font-weight="normal" text-anchor="start"><tspan x="0" dy="0">This car has stalled!</tspan></text><text transform="translate(190.2371,49.79628) scale(0.41859,0.41859)" font-size="40" xml:space="preserve" fill="#000000" stroke="none" stroke-width="1" font-family="Pixel" font-weight="normal" text-anchor="start"><tspan x="0" dy="0">You must restart the engine.</tspan></text></g></g></svg>