<svg version="1.1" xmlns="http://www.w3.org/2000/svg" xmlns:xlink="http://www.w3.org/1999/xlink" width="283.08174" height="52.59336" viewBox="0,0,283.08174,52.59336"><g transform="translate(-6.73672,-9.1773)"><g stroke-miterlimit="10"><path d="M29.04135,61.30816v-51.66835h239.15464v51.66836z" fill="#ffffff" stroke="#ffffff" stroke-width="0.925"/><path d="M245.20923,35.57457c0,-14.35345 9.98612,-25.98924 22.30462,-25.98924c12.3185,0 22.30462,11.63579 22.30462,25.98924c0,14.35346 -9.98612,25.98924 -22.30462,25.98924c-12.3185,0 -22.30462,-11.63579 -22.30462,-25.98924z" fill="#ffffff" stroke="none" stroke-width="NaN"/><path d="M6.73673,35.44732c0,-14.35345 9.98612,-25.98925 22.30462,-25.98925c12.3185,0 22.30462,11.63579 22.30462,25.98925c0,14.35345 -9.98612,25.98924 -22.30462,25.98924c-12.3185,0 -22.30462,-11.63578 -22.30462,-25.98924z" fill="#ffffff" stroke="none" stroke-width="NaN"/><text transform="translate(62.80772,30.98681) scale(0.41859,0.41859)" font-size="40" xml:space="preserve" fill="#000000" stroke="none" stroke-width="1" font-family="Pixel" font-weight="normal" text-anchor="start"><tspan x="0" dy="0">Press [ to shift to </tspan><tspan x="0" dy="48px">              drive!</tspan></text><text transform="translate(62.80772,30.98681) scale(0.41859,0.41859)" font-size="40" xml:space="preserve" fill="#ff0000" stroke="none" stroke-width="1" font-family="Pixel" font-weight="normal" text-anchor="start"><tspan x="0" dy="0">              [</tspan></text></g></g></svg>