<svg version="1.1" xmlns="http://www.w3.org/2000/svg" xmlns:xlink="http://www.w3.org/1999/xlink" width="105.6454" height="35.61149" viewBox="0,0,105.6454,35.61149"><g transform="translate(-283.24475,-159.67785)"><g data-paper-data="{&quot;isPaintingLayer&quot;:true}" fill-rule="nonzero" stroke="none" stroke-linecap="butt" stroke-linejoin="miter" stroke-miterlimit="10" stroke-dasharray="" stroke-dashoffset="0" style="mix-blend-mode: normal"><path d="M283.24475,193.03387v-30.60781h105.6454v30.60781z" fill-opacity="0.01176" fill="#ffffff" stroke-width="0"/><text transform="translate(284.96987,188.38507) scale(0.72677,0.72677)" font-size="40" xml:space="preserve" fill="#ffffff" fill-rule="nonzero" stroke="none" stroke-width="1" stroke-linecap="butt" stroke-linejoin="miter" stroke-miterlimit="10" stroke-dasharray="" stroke-dashoffset="0" font-family="&quot;DynaPuff&quot;, Pixel" font-weight="normal" text-anchor="start" style="mix-blend-mode: normal"><tspan x="0" dy="0">Back</tspan></text><path d="M373.88542,171.7515c0.91503,1.02941 -0.11438,1.94445 -0.11438,1.94445l-1.07918,0.95904c-1.16284,0.96768 -4.02778,4.32518 -5.69682,3.76198c-0.94041,-0.31732 -0.73562,-1.84512 -1.04354,-2.78865c-0.45152,-1.38354 -0.79742,-2.42018 -1.507,-3.71912c0,0 -0.65953,-1.20913 0.54961,-1.86866c1.20913,-0.65953 1.86866,0.54961 1.86866,0.54961c0.16958,0.31133 0.3717,0.65452 0.5783,1.01765c3.34481,-7.98865 19.29984,-6.90994 18.24036,3.53571c-0.26063,2.56959 -0.81954,3.53618 -2.23937,5.64842c-1.60835,2.3927 -4.13202,4.3496 -6.36576,6.10441c-0.45185,0.28821 -0.9037,0.57643 -1.35556,0.86464l-0.66961,0.59218c0,0 -1.04573,0.89634 -1.94207,-0.14939c-0.89634,-1.04573 0.14939,-1.94207 0.14939,-1.94207l0.9834,-0.82468c0.41401,-0.26279 0.82802,-0.52558 1.24202,-0.78837c1.67889,-1.31979 3.28687,-2.72048 4.73909,-4.29264c0.84151,-0.91101 1.75818,-2.11379 2.21587,-3.23954c0.28367,-0.69772 0.42418,-1.45447 0.49768,-2.20405c0.74448,-7.59259 -12.26227,-7.65527 -13.25994,-1.33503c0.50977,-0.43541 1.00877,-0.83533 1.21829,-1.01017l1.04611,-0.93011c0,0 1.02941,-0.91503 1.94445,0.11438z" fill="#ffffff" stroke-width="0.5"/></g></g></svg>