<svg version="1.1" xmlns="http://www.w3.org/2000/svg" xmlns:xlink="http://www.w3.org/1999/xlink" width="283.76387" height="46.62782" viewBox="0,0,283.76387,46.62782"><g transform="translate(-178.11807,-5.38735)"><g stroke-miterlimit="10"><g fill="#ffffff"><path d="M178.11807,29.68898c0,-12.3185 9.98612,-22.30462 22.30462,-22.30462c12.3185,0 22.30462,9.98612 22.30462,22.30462c0,12.3185 -9.98612,22.30462 -22.30462,22.30462c-12.3185,0 -22.30462,-9.98612 -22.30462,-22.30462z" stroke="none" stroke-width="NaN"/><path d="M200.42269,51.55267v-43.72738h239.15464v43.72738z" stroke="#ffffff" stroke-width="0.925"/><path d="M417.27271,29.68898c0,-12.3185 9.98612,-22.30462 22.30462,-22.30462c12.3185,0 22.30462,9.98612 22.30462,22.30462c0,12.3185 -9.98612,22.30462 -22.30462,22.30462c-12.3185,0 -22.30462,-9.98612 -22.30462,-22.30462z" stroke="none" stroke-width="NaN"/></g><text transform="translate(214.30557,26.52614) scale(0.41859,0.41859)" font-size="40" xml:space="preserve" fill="#000000" stroke="none" stroke-width="1" font-family="Pixel" font-weight="normal" text-anchor="start"><tspan x="0" dy="0">Car must be stopped to </tspan><tspan x="0" dy="46.150000000000006px">          enter buidlings</tspan></text></g></g></svg>