<svg version="1.1" xmlns="http://www.w3.org/2000/svg" xmlns:xlink="http://www.w3.org/1999/xlink" width="86.53857" height="29.40434" viewBox="0,0,86.53857,29.40434"><g transform="translate(-5.49903,-5.93276)"><g stroke-miterlimit="10"><path d="M5.49903,20.63493c0,-8.02295 6.50389,-14.52684 14.52684,-14.52684c8.02295,0 14.52684,6.50389 14.52684,14.52684c0,8.02295 -6.50389,14.52685 -14.52684,14.52685c-8.02295,0 -14.52684,-6.50389 -14.52684,-14.52685z" fill="#ffffff" stroke="none" stroke-width="NaN"/><path d="M20.02587,34.8746v-28.47933h57.48488v28.47934z" fill="#ffffff" stroke="#ffffff" stroke-width="0.925"/><path d="M62.98391,20.7143c0,-8.02295 6.50389,-14.52684 14.52684,-14.52684c8.02295,0 14.52685,6.50389 14.52685,14.52684c0,8.02295 -6.50389,14.52684 -14.52685,14.52684c-8.02295,0 -14.52684,-6.50389 -14.52684,-14.52684z" fill="#ffffff" stroke="none" stroke-width="NaN"/><path d="M14.55004,28.87317c0,0 -0.41018,-3.2545 -1.07962,-4.52539c-0.78409,-1.48854 -3.33558,-3.85654 -3.33558,-3.85654c0,0 5.62784,-1.49024 8.10106,-2.79301c2.63839,-1.38978 7.26581,-5.30152 7.26581,-5.30152c0,0 0.37706,3.46671 1.12064,4.87835c0.72781,1.38169 3.29456,3.50357 3.29456,3.50357c0,0 -6.0572,1.98101 -8.33795,3.1824c-2.75237,1.44982 -7.02891,4.91213 -7.02891,4.91213z" fill="#310000" stroke="none" stroke-width="NaN"/><path d="M20.928,23.37894c-0.08767,-0.02717 -0.15425,-0.06545 -0.20454,-0.10984c-0.48517,0.0869 -0.95208,0.12209 -1.26695,0.12876l-0.49246,-0.34184c0,0 -0.23302,-0.44238 0.20936,-0.6754c0.22036,-0.11607 0.38877,-0.06457 0.50231,0.01637c0.2219,0.00035 0.50651,0.00056 0.79736,-0.02158c-0.10039,-0.38602 -0.18416,-0.7796 -0.26744,-1.17445c-0.23403,-0.03548 -0.40317,-0.05634 -0.42261,-0.06082c-2.08206,-0.48018 -1.53181,-1.91633 -0.47318,-2.88237c-0.01044,-0.02025 -0.02101,-0.04046 -0.0317,-0.06062c0,0 -0.23302,-0.44238 0.20936,-0.6754c0.33432,-0.1761 0.54907,0.03354 0.63404,0.14646c0.02944,-0.01652 0.05888,-0.03254 0.0883,-0.04803c0,0 0.44238,-0.23302 0.6754,0.20936c0.23302,0.44238 -0.20936,0.6754 -0.20936,0.6754c-0.04932,0.02598 -0.09698,0.05148 -0.14301,0.0765c0.19808,0.55 0.33589,1.11889 0.46197,1.68996c0.61675,0.18405 1.2407,0.41737 1.51019,0.82888c0.69528,1.06167 -0.00853,1.64994 -0.957,1.96492c-0.03087,0.08148 -0.19485,0.44555 -0.62003,0.31376zM21.84753,21.78139c0.06116,-0.14779 -0.22546,-0.27497 -0.60327,-0.37624c0.05952,0.25573 0.1232,0.50965 0.19551,0.76022c0.18989,-0.0893 0.33696,-0.21291 0.40775,-0.38398zM19.92316,19.94809c-0.07067,-0.27497 -0.14956,-0.54726 -0.24232,-0.81467c-0.47271,0.41052 -0.24812,0.63082 0.24232,0.81467z" fill-opacity="0.58039" fill="#ffffff" stroke="none" stroke-width="0.5"/><text transform="translate(35.53723,26.48305) scale(0.5,0.5)" font-size="40" xml:space="preserve" fill="#270000" stroke="none" stroke-width="1" font-family="&quot;DynaPuff&quot;, Pixel" font-weight="normal" text-anchor="start"><tspan x="0" dy="0">9999</tspan></text></g></g></svg>