<svg version="1.1" xmlns="http://www.w3.org/2000/svg" xmlns:xlink="http://www.w3.org/1999/xlink" width="18.23244" height="14.86744" viewBox="0,0,18.23244,14.86744"><g transform="translate(-349.96959,-151.44571)"><g fill-opacity="0.37255" fill="#ff0000" stroke="none" stroke-width="0.5" stroke-miterlimit="10"><path d="M360.0906,159.50596c-2.21286,-1.56999 -8.22442,-2.30672 -9.50359,-4.54527c-2.44155,-4.27272 2.98766,-3.83242 5.33935,-2.88361c6.42429,2.59193 6.74522,3.76642 11.11803,8.86803l0.85251,1.70502c0.18291,0.34741 0.28642,0.74312 0.28642,1.16302c0,0.02423 -0.00034,0.04839 -0.00103,0.07246c0.05306,0.39121 0.00704,0.69014 -0.2355,0.9904c-0.39947,0.84924 -1.26281,1.43714 -2.26347,1.43714c-0.38437,0 -0.74849,-0.08674 -1.07383,-0.24173c-0.69374,-0.33047 -1.2112,-0.97119 -1.37295,-1.74272c-1.11082,-1.78178 -2.22445,-4.16896 -3.14594,-4.82274z"/></g></g></svg>