<svg version="1.1" xmlns="http://www.w3.org/2000/svg" xmlns:xlink="http://www.w3.org/1999/xlink" width="283.08174" height="64.50458" viewBox="0,0,283.08174,64.50458"><g transform="translate(-6.73671,-9.2192)"><g stroke-miterlimit="10"><path d="M245.20922,41.59526c0,-17.66239 9.98612,-31.9806 22.30462,-31.9806c12.3185,0 22.30462,14.31821 22.30462,31.9806c0,17.66239 -9.98612,31.9806 -22.30462,31.9806c-12.3185,0 -22.30462,-14.31821 -22.30462,-31.9806z" fill="#ffffff" stroke="none" stroke-width="NaN"/><path d="M6.73671,41.43867c0,-17.66239 9.98612,-31.9806 22.30462,-31.9806c12.3185,0 22.30462,14.31821 22.30462,31.9806c0,17.66239 -9.98612,31.9806 -22.30462,31.9806c-12.3185,0 -22.30462,-14.31821 -22.30462,-31.9806z" fill="#ffffff" stroke="none" stroke-width="NaN"/><path d="M29.04133,73.26127v-63.57957h239.15464v63.57958z" fill="#ffffff" stroke="#ffffff" stroke-width="0.925"/><text transform="translate(43.28902,58.47231) scale(0.41859,0.41859)" font-size="40" xml:space="preserve" fill="#ff0000" stroke="none" stroke-width="1" font-family="Pixel" font-weight="normal" text-anchor="start"><tspan x="0" dy="0">Find a gas station quick!</tspan></text><text transform="translate(49.56787,34.51682) scale(0.41859,0.41859)" font-size="40" xml:space="preserve" fill="#000000" stroke="none" stroke-width="1" font-family="Pixel" font-weight="normal" text-anchor="start"><tspan x="0" dy="0">You've run out of gas!</tspan></text></g></g></svg>