<svg version="1.1" xmlns="http://www.w3.org/2000/svg" xmlns:xlink="http://www.w3.org/1999/xlink" width="283.76388" height="88.06534" viewBox="0,0,283.76388,88.06534"><g transform="translate(-6.05458,-9.30206)"><g stroke-miterlimit="10"><path d="M245.20921,53.50438c0,-24.20757 9.98612,-43.83169 22.30462,-43.83169c12.3185,0 22.30462,19.62412 22.30462,43.83169c0,24.20757 -9.98612,43.83169 -22.30462,43.83169c-12.3185,0 -22.30462,-19.62412 -22.30462,-43.83169z" fill="#ffffff" stroke="none" stroke-width="NaN"/><path d="M6.05458,53.28976c0,-24.20757 9.98612,-43.83169 22.30462,-43.83169c12.3185,0 22.30462,19.62412 22.30462,43.83169c0,24.20757 -9.98612,43.83169 -22.30462,43.83169c-12.3185,0 -22.30462,-19.62412 -22.30462,-43.83169z" fill="#ffffff" stroke="none" stroke-width="NaN"/><path d="M28.3592,96.9049v-87.14033h239.15464v87.14034z" fill="#ffffff" stroke="#ffffff" stroke-width="0.925"/><text transform="translate(23.40599,85.20531) scale(0.41859,0.41859)" font-size="40" xml:space="preserve" fill="#000000" stroke="none" stroke-width="1" font-family="Pixel" font-weight="normal" text-anchor="start"><tspan x="0" dy="0">Press P to shift to Neutral!</tspan></text><g stroke="none" stroke-width="1" font-family="Pixel" font-weight="normal" font-size="40" text-anchor="start"><text transform="translate(49.56787,36.7204) scale(0.41859,0.41859)" font-size="40" xml:space="preserve" fill="#000000"><tspan x="0" dy="0">Car must be in Neutral</tspan></text><text transform="translate(107.124,56.30469) scale(0.41859,0.41859)" font-size="40" xml:space="preserve" fill="#000000"><tspan x="0" dy="0">to start!</tspan></text><text transform="translate(177.06285,36.72039) scale(0.41859,0.41859)" font-size="40" xml:space="preserve" fill="#ff0000"><tspan x="0" dy="0">Neutral</tspan></text></g><text transform="translate(23.40599,85.20531) scale(0.41859,0.41859)" font-size="40" xml:space="preserve" fill="#ff0000" stroke="none" stroke-width="1" font-family="Pixel" font-weight="normal" text-anchor="start"><tspan x="0" dy="0">              P</tspan></text></g></g></svg>