<svg version="1.1" xmlns="http://www.w3.org/2000/svg" xmlns:xlink="http://www.w3.org/1999/xlink" width="6.47787" height="29.12501" viewBox="0,0,6.47787,29.12501"><g transform="translate(-363.55831,-163.93814)"><g fill-opacity="0.37255" fill="#ff0000" stroke="none" stroke-width="0.5" stroke-miterlimit="10"><path d="M369.93332,178.68815c0.00847,2.79165 0.0112,5.58336 0,8.375c-0.00479,1.19297 0.4249,3.8876 -0.4375,4.75c-1.66667,1.66667 -2.70833,1.66667 -4.375,0c-1.04481,-1.04481 -0.20436,-3.48661 -0.1875,-4.88846c0.06135,-5.10008 0.13665,-10.60159 -0.3604,-15.74536c-0.08447,-0.87415 -1.12396,-3.42314 -0.93541,-4.11449c-0.0517,-0.20027 -0.0792,-0.41027 -0.0792,-0.6267c0,-1.38071 1.11929,-2.5 2.5,-2.5c1.01354,0 1.88622,0.60314 2.27867,1.47009c1.97461,2.63639 1.58811,10.57282 1.59633,13.27991z"/></g></g></svg>