<svg version="1.1" xmlns="http://www.w3.org/2000/svg" xmlns:xlink="http://www.w3.org/1999/xlink" width="837.34231" height="200.46917" viewBox="0,0,837.34231,200.46917"><defs><linearGradient x1="612.85997" y1="270.06009" x2="612.85997" y2="302.96101" gradientUnits="userSpaceOnUse" id="color-1"><stop offset="0" stop-color="#ff0000" stop-opacity="0.40784"/><stop offset="1" stop-color="#ff0000" stop-opacity="0.6902"/></linearGradient></defs><g transform="translate(96.99408,-237.763)"><g data-paper-data="{&quot;isPaintingLayer&quot;:true}" fill-rule="nonzero" stroke-linejoin="miter" stroke-miterlimit="10" stroke-dasharray="" stroke-dashoffset="0" style="mix-blend-mode: normal"><path d="M-96.99408,438.23217v-200.46917h837.34231v200.46917z" fill="#000000" stroke="#000000" stroke-width="0" stroke-linecap="butt"/><path d="M73.16894,355.62094c0,0 9.67253,-0.78902 19.77271,-4.84242c5.74517,-2.30565 11.24578,-6.05043 16.14092,-10.34938c13.44326,-11.80595 17.97503,-32.11286 17.97503,-41.7201c0,-4.02625 -0.55109,-11.76385 -2.89836,-18.79573c-2.85588,-8.55554 -8.12504,-16.63956 -15.18497,-22.98174c-14.03094,-12.60449 -35.80534,-15.11534 -35.80534,-15.11534h492.56813c0,0 -6.73041,-0.1227 -14.79548,2.11208c-6.87545,1.90514 -14.61301,5.6746 -21.14836,11.05485c-6.69918,5.51512 -12.49111,12.92853 -15.89897,20.60392c-3.77605,8.50464 -4.80489,17.241 -4.80489,22.11933c0,4.22304 0.4437,11.50602 2.8606,19.07493c2.67595,8.38013 7.78369,16.47131 14.4715,23.14914c6.96093,6.13072 15.40999,10.74247 22.95067,13.06864c8.89261,2.74322 16.36494,2.62182 16.36494,2.62182z" fill="#ff0000" stroke="none" stroke-width="NaN" stroke-linecap="butt"/><path d="M13.24411,298.71858c0,-31.4263 25.47605,-56.90234 56.90235,-56.90234c31.42629,0 56.90234,25.47604 56.90234,56.90235c0,31.4263 -25.47604,56.90235 -56.90234,56.90235c-31.4263,0 -56.90235,-25.47604 -56.90235,-56.90235z" fill="#ffffff" stroke="none" stroke-width="0" stroke-linecap="butt"/><path d="M562.71458,298.71858c0,-1.8289 1.48261,-3.31152 3.31152,-3.31152c1.8289,0 3.31152,1.48262 3.31152,3.31152c0,1.8289 -1.48262,3.31152 -3.31152,3.31152c-1.8289,0 -3.31152,-1.48262 -3.31152,-3.31152z" fill="#000000" stroke="none" stroke-width="0" stroke-linecap="butt"/><path d="M66.83493,298.71858c0,-1.8289 1.48261,-3.31152 3.31152,-3.31152c1.8289,0 3.31152,1.48262 3.31152,3.31152c0,1.8289 -1.48262,3.31152 -3.31152,3.31152c-1.8289,0 -3.31151,-1.48262 -3.31151,-3.31152z" fill="#000000" stroke="none" stroke-width="0" stroke-linecap="butt"/><path d="M562.71458,298.71858c0,-1.8289 1.48262,-3.31152 3.31152,-3.31152c1.8289,0 3.31152,1.48262 3.31152,3.31152c0,1.8289 -1.48262,3.31152 -3.31152,3.31152c-1.8289,0 -3.31152,-1.48262 -3.31152,-3.31152z" fill="#000000" stroke="none" stroke-width="0" stroke-linecap="butt"/><path d="M269.12944,323.54089v-19.37544h100.64713v19.37544z" fill-opacity="0.67451" fill="#ffffff" stroke="#000000" stroke-width="0" stroke-linecap="butt"/><text transform="translate(47.64645,288.88811) scale(0.5,0.5)" font-size="40" xml:space="preserve" fill-opacity="0.33333" fill="#000000" fill-rule="nonzero" stroke="none" stroke-width="1" stroke-linecap="butt" stroke-linejoin="miter" stroke-miterlimit="10" stroke-dasharray="" stroke-dashoffset="0" font-family="Pixel" font-weight="normal" text-anchor="start" style="mix-blend-mode: normal"><tspan x="0" dy="0">MPH</tspan></text><text transform="translate(44.94481,338.73263) rotate(-135) scale(0.22077,0.22077)" font-size="40" xml:space="preserve" fill="#000000" fill-rule="nonzero" stroke="none" stroke-width="1" stroke-linecap="butt" stroke-linejoin="miter" stroke-miterlimit="10" stroke-dasharray="" stroke-dashoffset="0" font-family="Pixel" font-weight="normal" text-anchor="start" style="mix-blend-mode: normal"><tspan x="0" dy="0">0</tspan></text><text transform="translate(114.96669,288.68183) rotate(90) scale(0.22077,0.22077)" font-size="40" xml:space="preserve" fill="#000000" fill-rule="nonzero" stroke="none" stroke-width="1" stroke-linecap="butt" stroke-linejoin="miter" stroke-miterlimit="10" stroke-dasharray="" stroke-dashoffset="0" font-family="Pixel" font-weight="normal" text-anchor="start" style="mix-blend-mode: normal"><tspan x="0" dy="0">240</tspan></text><text transform="translate(42.26807,262.4889) rotate(-31.45091) scale(0.22077,0.22077)" font-size="40" xml:space="preserve" fill="#000000" fill-rule="nonzero" stroke="none" stroke-width="1" stroke-linecap="butt" stroke-linejoin="miter" stroke-miterlimit="10" stroke-dasharray="" stroke-dashoffset="0" font-family="Pixel" font-weight="normal" text-anchor="start" style="mix-blend-mode: normal"><tspan x="0" dy="0">120</tspan></text><text transform="translate(24.48314,301.17355) rotate(-89.1072) scale(0.22077,0.22077)" font-size="40" xml:space="preserve" fill="#000000" fill-rule="nonzero" stroke="none" stroke-width="1" stroke-linecap="butt" stroke-linejoin="miter" stroke-miterlimit="10" stroke-dasharray="" stroke-dashoffset="0" font-family="Pixel" font-weight="normal" text-anchor="start" style="mix-blend-mode: normal"><tspan x="0" dy="0">60</tspan></text><text transform="translate(88.60812,256.05589) rotate(32.81187) scale(0.22077,0.22077)" font-size="40" xml:space="preserve" fill="#000000" fill-rule="nonzero" stroke="none" stroke-width="1" stroke-linecap="butt" stroke-linejoin="miter" stroke-miterlimit="10" stroke-dasharray="" stroke-dashoffset="0" font-family="Pixel" font-weight="normal" text-anchor="start" style="mix-blend-mode: normal"><tspan x="0" dy="0">180</tspan></text><text transform="translate(610.95049,295.55539) rotate(90) scale(0.22077,0.22077)" font-size="40" xml:space="preserve" fill="#ff0000" fill-rule="nonzero" stroke="none" stroke-width="1" stroke-linecap="butt" stroke-linejoin="miter" stroke-miterlimit="10" stroke-dasharray="" stroke-dashoffset="0" font-family="Pixel" font-weight="normal" text-anchor="start" style="mix-blend-mode: normal"><tspan x="0" dy="0">8</tspan></text><text transform="translate(603.77247,275.10816) rotate(56.09651) scale(0.22077,0.22077)" font-size="40" xml:space="preserve" fill="#ff0000" fill-rule="nonzero" stroke="none" stroke-width="1" stroke-linecap="butt" stroke-linejoin="miter" stroke-miterlimit="10" stroke-dasharray="" stroke-dashoffset="0" font-family="Pixel" font-weight="normal" text-anchor="start" style="mix-blend-mode: normal"><tspan x="0" dy="0">7</tspan></text><path d="M509.12377,298.71862c0,-31.4263 25.47605,-56.90234 56.90235,-56.90234c31.42629,0 56.90234,25.47604 56.90234,56.90235c0,31.4263 -25.47604,56.90235 -56.90234,56.90235c-31.4263,0 -56.90235,-25.47604 -56.90235,-56.90235z" fill="#ffffff" stroke="none" stroke-width="0" stroke-linecap="butt"/><path d="M608.59533,295.56483c0,-6.13845 -2.00934,-11.95528 -5.81225,-17.60572c2.41532,-1.75016 4.82671,-3.51381 7.43303,-5.07824c1.61825,-0.97134 3.2754,-1.90049 4.94285,-2.82078c4.93458,8.44666 7.76954,18.2446 7.76954,28.6585c0,2.1256 0.06418,1.1515 -0.16287,3.21661c-4.63195,1.09263 -9.35321,1.29061 -14.0809,0.69774c0.36676,-4.22821 -0.08939,-4.84773 -0.08939,-7.06812z" fill="url(#color-1)" stroke="none" stroke-width="0" stroke-linecap="butt"/><path d="M562.71459,298.71862c0,-1.8289 1.48262,-3.31152 3.31152,-3.31152c1.8289,0 3.31152,1.48262 3.31152,3.31152c0,1.8289 -1.48262,3.31152 -3.31152,3.31152c-1.8289,0 -3.31152,-1.48262 -3.31152,-3.31152z" fill="#000000" stroke="none" stroke-width="0" stroke-linecap="butt"/><text transform="translate(539.31821,337.04965) rotate(-135) scale(0.22077,0.22077)" font-size="40" xml:space="preserve" fill="#000000" fill-rule="nonzero" stroke="none" stroke-width="1" stroke-linecap="butt" stroke-linejoin="miter" stroke-miterlimit="10" stroke-dasharray="" stroke-dashoffset="0" font-family="Pixel" font-weight="normal" text-anchor="start" style="mix-blend-mode: normal"><tspan x="0" dy="0">0</tspan></text><text transform="translate(610.9505,295.55539) rotate(90) scale(0.22077,0.22077)" font-size="40" xml:space="preserve" fill="#6b0000" fill-rule="nonzero" stroke="none" stroke-width="1" stroke-linecap="butt" stroke-linejoin="miter" stroke-miterlimit="10" stroke-dasharray="" stroke-dashoffset="0" font-family="Pixel" font-weight="normal" text-anchor="start" style="mix-blend-mode: normal"><tspan x="0" dy="0">8</tspan></text><text transform="translate(542.73001,258.64437) rotate(-30.04329) scale(0.22077,0.22077)" font-size="40" xml:space="preserve" fill="#000000" fill-rule="nonzero" stroke="none" stroke-width="1" stroke-linecap="butt" stroke-linejoin="miter" stroke-miterlimit="10" stroke-dasharray="" stroke-dashoffset="0" font-family="Pixel" font-weight="normal" text-anchor="start" style="mix-blend-mode: normal"><tspan x="0" dy="0">4</tspan></text><text transform="translate(603.77248,275.10816) rotate(56.09651) scale(0.22077,0.22077)" font-size="40" xml:space="preserve" fill="#6b0000" fill-rule="nonzero" stroke="none" stroke-width="1" stroke-linecap="butt" stroke-linejoin="miter" stroke-miterlimit="10" stroke-dasharray="" stroke-dashoffset="0" font-family="Pixel" font-weight="normal" text-anchor="start" style="mix-blend-mode: normal"><tspan x="0" dy="0">7</tspan></text><text transform="translate(588.64667,258.49285) rotate(36.2613) scale(0.22077,0.22077)" font-size="40" xml:space="preserve" fill="#000000" fill-rule="nonzero" stroke="none" stroke-width="1" stroke-linecap="butt" stroke-linejoin="miter" stroke-miterlimit="10" stroke-dasharray="" stroke-dashoffset="0" font-family="Pixel" font-weight="normal" text-anchor="start" style="mix-blend-mode: normal"><tspan x="0" dy="0">6</tspan></text><text transform="translate(565.72177,252.02937) rotate(6.17181) scale(0.22077,0.22077)" font-size="40" xml:space="preserve" fill="#000000" fill-rule="nonzero" stroke="none" stroke-width="1" stroke-linecap="butt" stroke-linejoin="miter" stroke-miterlimit="10" stroke-dasharray="" stroke-dashoffset="0" font-family="Pixel" font-weight="normal" text-anchor="start" style="mix-blend-mode: normal"><tspan x="0" dy="0">5</tspan></text><text transform="translate(528.29115,274.11262) rotate(-59.24076) scale(0.22077,0.22077)" font-size="40" xml:space="preserve" fill="#000000" fill-rule="nonzero" stroke="none" stroke-width="1" stroke-linecap="butt" stroke-linejoin="miter" stroke-miterlimit="10" stroke-dasharray="" stroke-dashoffset="0" font-family="Pixel" font-weight="normal" text-anchor="start" style="mix-blend-mode: normal"><tspan x="0" dy="0">3</tspan></text><text transform="translate(521.93448,295.98294) rotate(-83.18949) scale(0.22077,0.22077)" font-size="40" xml:space="preserve" fill="#000000" fill-rule="nonzero" stroke="none" stroke-width="1" stroke-linecap="butt" stroke-linejoin="miter" stroke-miterlimit="10" stroke-dasharray="" stroke-dashoffset="0" font-family="Pixel" font-weight="normal" text-anchor="start" style="mix-blend-mode: normal"><tspan x="0" dy="0">2</tspan></text><text transform="translate(526.04093,316.89225) rotate(-117.01944) scale(0.22077,0.22077)" font-size="40" xml:space="preserve" fill="#000000" fill-rule="nonzero" stroke="none" stroke-width="1" stroke-linecap="butt" stroke-linejoin="miter" stroke-miterlimit="10" stroke-dasharray="" stroke-dashoffset="0" font-family="Pixel" font-weight="normal" text-anchor="start" style="mix-blend-mode: normal"><tspan x="0" dy="0">1</tspan></text><path d="M530.17493,325.61118l-7.13377,4.78242" fill="none" stroke="#000000" stroke-width="1.5" stroke-linecap="round"/><path d="M522.13786,305.57704l-8.82021,1.51609" fill="none" stroke="#000000" stroke-width="1.5" stroke-linecap="round"/><path d="M524.41041,282.7081l-8.39789,-3.09353" fill="none" stroke="#000000" stroke-width="1.5" stroke-linecap="round"/><path d="M537.00423,265.0716l-5.97916,-6.65914" fill="none" stroke="#000000" stroke-width="1.5" stroke-linecap="round"/><path d="M554.81954,246.48235l1.51581,8.82025" fill="none" stroke="#000000" stroke-width="1.5" stroke-linecap="round"/><path d="M579.35232,256.3574l2.62711,-8.55528" fill="none" stroke="#000000" stroke-width="1.5" stroke-linecap="round"/><path d="M604.67693,262.55818l-6.6215,6.02081" fill="none" stroke="#000000" stroke-width="1.5" stroke-linecap="round"/><path d="M608.5702,287.52932l8.61124,-2.4374" fill="#6b0000" stroke="#6b0000" stroke-width="1.5" stroke-linecap="round"/><text transform="translate(545.02761,288.16211) scale(0.5,0.5)" font-size="40" xml:space="preserve" fill-opacity="0.33333" fill="#000000" fill-rule="nonzero" stroke="none" stroke-width="1" stroke-linecap="butt" stroke-linejoin="miter" stroke-miterlimit="10" stroke-dasharray="" stroke-dashoffset="0" font-family="Pixel" font-weight="normal" text-anchor="start" style="mix-blend-mode: normal"><tspan x="0" dy="0">RPM</tspan></text><text transform="translate(279.13411,301.33911) scale(0.22715,0.22715)" font-size="40" xml:space="preserve" fill-opacity="0.60392" fill="#000000" fill-rule="nonzero" stroke="none" stroke-width="1" stroke-linecap="butt" stroke-linejoin="miter" stroke-miterlimit="10" stroke-dasharray="" stroke-dashoffset="0" font-family="Pixel" font-weight="normal" text-anchor="start" style="mix-blend-mode: normal"><tspan x="0" dy="0">SmartScreen V0</tspan></text><path d="M130.26854,316.62072c0,-16.49206 13.36945,-29.86151 29.86151,-29.86151c16.49206,0 29.86151,13.36945 29.86151,29.86151c0,16.49206 -13.36945,29.86151 -29.86151,29.86151c-16.49206,0 -29.86151,-13.36945 -29.86151,-29.86151z" fill="#ffffff" stroke="none" stroke-width="0" stroke-linecap="butt"/><text transform="translate(146.04258,310.88736) scale(0.33147,0.33147)" font-size="40" xml:space="preserve" fill-opacity="0.33333" fill="#000000" fill-rule="nonzero" stroke="none" stroke-width="1" stroke-linecap="butt" stroke-linejoin="miter" stroke-miterlimit="10" stroke-dasharray="" stroke-dashoffset="0" font-family="Pixel" font-weight="normal" text-anchor="start" style="mix-blend-mode: normal"><tspan x="0" dy="0">Fuel</tspan></text><path d="M157.73886,316.62072c0,-1.32063 1.07058,-2.39121 2.39121,-2.39121c1.32063,0 2.39121,1.07058 2.39121,2.39121c0,1.32063 -1.07058,2.39121 -2.39121,2.39121c-1.32063,0 -2.3912,-1.07058 -2.3912,-2.39121z" fill="#000000" stroke="none" stroke-width="0" stroke-linecap="butt"/><text transform="translate(136.7414,332.22672) scale(0.16973,0.16973)" font-size="40" xml:space="preserve" fill="#ff0000" fill-rule="nonzero" stroke="none" stroke-width="1" stroke-linecap="butt" stroke-linejoin="miter" stroke-miterlimit="10" stroke-dasharray="" stroke-dashoffset="0" font-family="Pixel" font-weight="normal" text-anchor="start" style="mix-blend-mode: normal"><tspan x="0" dy="0">E</tspan></text><text transform="translate(180.78143,332.22672) scale(0.16973,0.16973)" font-size="40" xml:space="preserve" fill="#000000" fill-rule="nonzero" stroke="none" stroke-width="1" stroke-linecap="butt" stroke-linejoin="miter" stroke-miterlimit="10" stroke-dasharray="" stroke-dashoffset="0" font-family="Pixel" font-weight="normal" text-anchor="start" style="mix-blend-mode: normal"><tspan x="0" dy="0">F</tspan></text></g></g></svg>