<svg version="1.1" xmlns="http://www.w3.org/2000/svg" xmlns:xlink="http://www.w3.org/1999/xlink" width="283.76387" height="46.62784" viewBox="0,0,283.76387,46.62784"><g transform="translate(-6.05459,-6.88883)"><g stroke-miterlimit="10"><path d="M6.05459,31.19048c0,-12.3185 9.98612,-22.30462 22.30462,-22.30462c12.3185,0 22.30462,9.98612 22.30462,22.30462c0,12.3185 -9.98612,22.30462 -22.30462,22.30462c-12.3185,0 -22.30462,-9.98612 -22.30462,-22.30462z" fill="#ffffff" stroke="none" stroke-width="NaN"/><path d="M28.3592,53.05417v-43.72738h239.15464v43.72738z" fill="#ffffff" stroke="#ffffff" stroke-width="0.925"/><path d="M245.20922,31.19048c0,-12.3185 9.98612,-22.30462 22.30462,-22.30462c12.3185,0 22.30462,9.98612 22.30462,22.30462c0,12.3185 -9.98612,22.30462 -22.30462,22.30462c-12.3185,0 -22.30462,-9.98612 -22.30462,-22.30462z" fill="#ffffff" stroke="none" stroke-width="NaN"/><text transform="translate(33.87074,28.02763) scale(0.41859,0.41859)" font-size="40" xml:space="preserve" fill="#000000" stroke="none" stroke-width="1" font-family="Pixel" font-weight="normal" text-anchor="start"><tspan x="0" dy="0">Hold down clutch to start.</tspan></text><text transform="translate(73.63679,47.28182) scale(0.41859,0.41859)" font-size="40" xml:space="preserve" fill="#000000" stroke="none" stroke-width="1" font-family="Pixel" font-weight="normal" text-anchor="start"><tspan x="0" dy="0">Press . to clutch!</tspan></text><text transform="translate(73.63679,47.28182) scale(0.41859,0.41859)" font-size="40" xml:space="preserve" fill="#ff0000" stroke="none" stroke-width="1" font-family="Pixel" font-weight="normal" text-anchor="start"><tspan x="0" dy="0">              .</tspan></text></g></g></svg>