<svg version="1.1" xmlns="http://www.w3.org/2000/svg" xmlns:xlink="http://www.w3.org/1999/xlink" width="283.76387" height="88.06534" viewBox="0,0,283.76387,88.06534"><g transform="translate(-178.11806,-5.66485)"><g stroke-miterlimit="10"><path d="M417.2727,49.86716c0,-24.20757 9.98612,-43.83169 22.30462,-43.83169c12.3185,0 22.30462,19.62412 22.30462,43.83169c0,24.20757 -9.98612,43.83169 -22.30462,43.83169c-12.3185,0 -22.30462,-19.62412 -22.30462,-43.83169z" fill="#ffffff" stroke="none" stroke-width="NaN"/><path d="M178.11807,49.65254c0,-24.20757 9.98612,-43.83169 22.30462,-43.83169c12.3185,0 22.30462,19.62412 22.30462,43.83169c0,24.20757 -9.98612,43.83169 -22.30462,43.83169c-12.3185,0 -22.30462,-19.62412 -22.30462,-43.83169z" fill="#ffffff" stroke="none" stroke-width="NaN"/><path d="M200.42268,93.26768v-87.14033h239.15464v87.14034z" fill="#ffffff" stroke="#ffffff" stroke-width="0.925"/><text transform="translate(195.46948,81.56809) scale(0.41859,0.41859)" font-size="40" xml:space="preserve" fill="#000000" stroke="none" stroke-width="1" font-family="Pixel" font-weight="normal" text-anchor="start"><tspan x="0" dy="0">Press P to shift to Neutral!</tspan></text><g stroke="none" stroke-width="1" font-family="Pixel" font-weight="normal" font-size="40" text-anchor="start"><text transform="translate(221.63136,33.08318) scale(0.41859,0.41859)" font-size="40" xml:space="preserve" fill="#000000"><tspan x="0" dy="0">Car must be in Neutral</tspan></text><text transform="translate(279.18749,52.66747) scale(0.41859,0.41859)" font-size="40" xml:space="preserve" fill="#000000"><tspan x="0" dy="0">to start!</tspan></text><text transform="translate(349.12634,33.08317) scale(0.41859,0.41859)" font-size="40" xml:space="preserve" fill="#ff0000"><tspan x="0" dy="0">Neutral</tspan></text></g><text transform="translate(195.46948,81.56809) scale(0.41859,0.41859)" font-size="40" xml:space="preserve" fill="#ff0000" stroke="none" stroke-width="1" font-family="Pixel" font-weight="normal" text-anchor="start"><tspan x="0" dy="0">              P</tspan></text></g></g></svg>