<svg version="1.1" xmlns="http://www.w3.org/2000/svg" xmlns:xlink="http://www.w3.org/1999/xlink" width="283.76387" height="44.65238" viewBox="0,0,283.76387,44.65238"><g transform="translate(-178.11807,-157.67381)"><g data-paper-data="{&quot;isPaintingLayer&quot;:true}" fill-rule="nonzero" stroke-linecap="butt" stroke-linejoin="miter" stroke-miterlimit="10" stroke-dasharray="" stroke-dashoffset="0" style="mix-blend-mode: normal"><path d="M178.11807,180c0,-12.3185 9.98612,-22.30462 22.30462,-22.30462c12.3185,0 22.30462,9.98612 22.30462,22.30462c0,12.3185 -9.98612,22.30462 -22.30462,22.30462c-12.3185,0 -22.30462,-9.98612 -22.30462,-22.30462z" fill="#ccfffa" stroke="none" stroke-width="NaN"/><path d="M200.42268,201.86369v-43.72738h239.15464v43.72738z" fill="#ccfffa" stroke="#ccfffa" stroke-width="0.925"/><path d="M417.27269,180c0,-12.3185 9.98612,-22.30462 22.30462,-22.30462c12.3185,0 22.30462,9.98612 22.30462,22.30462c0,12.3185 -9.98612,22.30462 -22.30462,22.30462c-12.3185,0 -22.30462,-9.98612 -22.30462,-22.30462z" fill="#ccfffa" stroke="none" stroke-width="NaN"/><text transform="translate(209.65209,184.56612) scale(0.38051,0.38051)" font-size="40" xml:space="preserve" fill="#000000" fill-rule="nonzero" stroke="none" stroke-width="1" stroke-linecap="butt" stroke-linejoin="miter" stroke-miterlimit="10" stroke-dasharray="" stroke-dashoffset="0" font-family="Pixel" font-weight="normal" text-anchor="start" style="mix-blend-mode: normal"><tspan x="0" dy="0">Rare Achievement Unlocked</tspan></text></g></g></svg>