<svg version="1.1" xmlns="http://www.w3.org/2000/svg" xmlns:xlink="http://www.w3.org/1999/xlink" width="77.15851" height="39.83697" viewBox="0,0,77.15851,39.83697"><g transform="translate(-281.42074,-160.08151)"><g data-paper-data="{&quot;isPaintingLayer&quot;:true}" fill="#ff6666" fill-rule="nonzero" stroke="none" stroke-width="0.5" stroke-linecap="butt" stroke-linejoin="miter" stroke-miterlimit="10" stroke-dasharray="" stroke-dashoffset="0" style="mix-blend-mode: normal"><path d="M322.00423,163.55462c-0.15595,-2.49513 2.33918,-2.65107 2.33918,-2.65107l4.37481,-0.27314c4.34808,-0.14041 9.74788,-0.98919 14.02036,-0.25095c0.01309,0.00226 0.02618,0.00454 0.03926,0.00683l0.00012,-0.00636l4.99537,0.09937c0.62436,0.01144 1.24525,0.25538 1.72168,0.73181c0.97631,0.97631 0.97631,2.55922 0,3.53553c-0.29413,0.29413 -0.64332,0.49965 -1.01439,0.61655l-4.68803,1.58664c-3.38115,1.14417 -6.77793,2.23894 -10.17551,3.33019c-0.33323,0.29748 -0.727,0.49019 -1.13868,0.57812l-2.34141,0.54032c-0.71632,0.23077 -1.43244,0.46209 -2.14824,0.69437c-0.5873,0.22329 -1.18632,0.4144 -1.79303,0.58439c-1.81254,0.59359 -3.62222,1.19571 -5.42678,1.8134c1.41117,-0.15704 2.81222,-0.22641 4.1924,-0.15813c3.75789,-0.87456 7.50849,-1.7748 11.24496,-2.72451c3.23061,-0.82114 6.46108,-1.64285 9.69192,-2.46309c1.44743,-0.36747 2.85413,-1.12532 4.33226,-1.19976c0.78158,-0.27294 1.56379,-0.54562 2.34659,-0.81837l0.05927,0.00792l-0.00725,-0.02416l2.68177,-0.8055c0.86424,-0.2783 1.85,-0.07437 2.53615,0.61178c0.97631,0.97631 0.97631,2.55922 0,3.53553c-0.28787,0.28787 -0.62849,0.49086 -0.99073,0.60897l-4.67045,1.63466l-0.00665,-0.019c-0.03248,0.01779 -0.06505,0.03545 -0.09771,0.05298c-0.88296,0.47386 -1.86958,0.68125 -2.86842,0.8572c-5.00128,1.73538 -10.00312,3.4806 -14.95316,5.35591c-0.28028,2.80343 -3.29027,4.11041 -6.08529,4.81946l-1.71428,1.42857l-0.01751,-0.02101c-0.08055,0.07186 -0.16217,0.14264 -0.24495,0.21227c-0.04549,0.03827 -6.63312,3.11 -7.70264,3.60023c-1.17828,0.54007 -2.3566,1.07985 -3.53482,1.61974c1.70099,-0.1236 3.39918,-0.28266 5.09187,-0.48543c3.84058,-1.06859 7.69409,-2.05829 11.71561,-2.51233l4.76622,-0.52958c0.73541,-0.08809 1.50245,0.15004 2.0668,0.71439c0.97631,0.97631 0.97631,2.55922 0,3.53553c-0.38275,0.38275 -0.85872,0.61544 -1.35483,0.69809l-4.88991,0.88179c-2.57335,1.07823 -5.48665,1.01786 -8.22643,1.54539c-0.97926,0.18855 -1.9625,0.35369 -2.94885,0.49843c-3.61181,1.01165 -7.20846,2.11026 -10.91403,2.88161c-0.47022,0.09788 -10.10226,2.11596 -10.29002,2.088c-0.16561,-0.02466 -0.32904,-0.05652 -0.49056,-0.09474l-0.00924,0.04621l-3.35488,-0.67097c-0.48026,-0.0888 -0.93954,-0.31893 -1.311,-0.69039c-0.97631,-0.97631 -0.97631,-2.55922 0,-3.53553c0.1592,-0.1592 0.33454,-0.29245 0.52074,-0.39973l2.81762,-1.70584l0.02095,0.03461l0.09611,-0.10124c0.05683,-0.02657 0.11367,-0.05313 0.1705,-0.07969c0.09669,-0.45753 0.32269,-0.89319 0.67801,-1.24851c0.03878,-0.03878 0.07851,-0.07602 0.11913,-0.11172l2.59252,-2.31346l0.02041,0.02287c0.06584,-0.06759 0.13299,-0.13407 0.20153,-0.19937c0.32184,-0.3066 0.67756,-0.56706 1.05435,-0.7988c-4.6793,0.61216 -9.37134,1.14447 -14.07101,1.6564l-0.16055,-0.04354l-0.0009,0.04557l-4.99543,-0.09831c-0.62452,-0.01132 -1.24562,-0.25526 -1.72218,-0.73182c-0.97631,-0.97631 -0.97631,-2.55922 0,-3.53553c0.21092,-0.21092 0.45014,-0.37627 0.70545,-0.49605l4.42339,-2.20308l0.00691,0.01387c0.03078,-0.02035 0.06165,-0.0406 0.09259,-0.06073c1.76042,-1.14525 3.75004,-1.86308 5.76822,-2.50869c-0.09228,-0.73918 0.14534,-1.51169 0.71287,-2.07922c0.24204,-0.24204 0.52135,-0.42407 0.81946,-0.5461l4.10194,-1.79144c2.11843,-0.92381 4.26078,-1.74163 6.42203,-2.48702c7.88795,-3.38652 15.40439,-6.57423 24.1151,-7.42757l0.18467,0.08713l0.00444,-0.08434l1.52261,0.08014c0.21376,-0.06869 0.42753,-0.13738 0.64129,-0.20608c-0.96081,-0.03835 -1.87841,-0.05778 -2.71916,-0.03069l-4.29949,0.269c0,0 -2.49513,0.15595 -2.65108,-2.33919z"/></g></g></svg>