<svg version="1.1" xmlns="http://www.w3.org/2000/svg" xmlns:xlink="http://www.w3.org/1999/xlink" width="488.23185" height="48.37678" viewBox="0,0,488.23185,48.37678"><g transform="translate(-45.6157,-165.35436)"><g stroke-miterlimit="10"><path d="M118.47087,194.29619v-28.47933h400.84983v28.47934z" fill="#ffffff" stroke="#ffffff" stroke-width="0.925"/><path d="M504.79386,179.94347c0,-8.02295 6.50389,-14.52684 14.52684,-14.52684c8.02295,0 14.52685,6.50389 14.52685,14.52684c0,8.02295 -6.50389,14.52684 -14.52685,14.52684c-8.02295,0 -14.52684,-6.50389 -14.52684,-14.52684z" fill="#ffffff" stroke="none" stroke-width="NaN"/><path d="M106.15245,180.05652c0,-8.02295 6.50389,-14.52684 14.52684,-14.52684c8.02295,0 14.52684,6.50389 14.52684,14.52684c0,8.02295 -6.50389,14.52685 -14.52684,14.52685c-8.02295,0 -14.52684,-6.50389 -14.52684,-14.52685z" fill="#ffffff" stroke="none" stroke-width="NaN"/><path d="M48.1752,182.80053c-0.08767,-0.02717 -0.15425,-0.06545 -0.20454,-0.10984c-0.48517,0.0869 -0.95208,0.12209 -1.26695,0.12876l-0.49246,-0.34184c0,0 -0.23302,-0.44238 0.20936,-0.6754c0.22036,-0.11607 0.38877,-0.06457 0.50231,0.01637c0.2219,0.00035 0.50651,0.00056 0.79736,-0.02158c-0.10039,-0.38602 -0.18416,-0.7796 -0.26744,-1.17445c-0.23403,-0.03548 -0.40317,-0.05634 -0.42261,-0.06082c-2.08206,-0.48018 -1.53181,-1.91633 -0.47318,-2.88237c-0.01044,-0.02025 -0.02101,-0.04046 -0.0317,-0.06062c0,0 -0.23302,-0.44238 0.20936,-0.6754c0.33432,-0.1761 0.54907,0.03354 0.63404,0.14646c0.02944,-0.01652 0.05888,-0.03254 0.0883,-0.04803c0,0 0.44238,-0.23302 0.6754,0.20936c0.23302,0.44238 -0.20936,0.6754 -0.20936,0.6754c-0.04932,0.02598 -0.09698,0.05148 -0.14301,0.0765c0.19808,0.55 0.33589,1.11889 0.46197,1.68996c0.61675,0.18405 1.2407,0.41737 1.51019,0.82888c0.69528,1.06167 -0.00853,1.64994 -0.957,1.96492c-0.03087,0.08148 -0.19485,0.44555 -0.62003,0.31376zM49.09473,181.20298c0.06116,-0.14779 -0.22546,-0.27497 -0.60327,-0.37624c0.05952,0.25573 0.1232,0.50965 0.19551,0.76022c0.18989,-0.0893 0.33696,-0.21291 0.40775,-0.38398zM47.17036,179.36968c-0.07067,-0.27497 -0.14956,-0.54726 -0.24232,-0.81467c-0.47271,0.41052 -0.24812,0.63082 0.24232,0.81467z" fill-opacity="0.58039" fill="#ffffff" stroke="none" stroke-width="0.5"/><text transform="translate(138.67648,185.90464) scale(0.5,0.5)" font-size="40" xml:space="preserve" fill="#270000" stroke="none" stroke-width="1" font-family="&quot;DynaPuff&quot;, Pixel" font-weight="normal" text-anchor="start"><tspan x="0" dy="0">Current Challenge: YapYapYapYapYap</tspan></text><path d="M118.47087,186.87119c0,-1.21968 0.98875,-2.20843 2.20843,-2.20843c1.21968,0 2.20843,0.98875 2.20843,2.20843c0,1.21968 -0.98875,2.20843 -2.20843,2.20843c-1.21968,0 -2.20843,-0.98875 -2.20843,-2.20843z" fill="#310000" stroke="none" stroke-width="0.5"/><path d="M121.82139,181.17174c-0.06303,0.44118 -0.27252,1.17433 -0.96876,1.17433c-0.25455,0 -0.44404,-0.098 -0.5851,-0.24391c-0.5297,0.06022 -0.86941,-0.67074 -0.86941,-0.67074c-1.03179,-2.22011 -1.59893,-3.75299 -1.98217,-6.31425c-0.27382,-1.83002 -1.26307,-2.12331 -0.08063,-4.41035c1.14904,-2.22244 3.83698,-1.04704 5.29592,-0.70372c0.58653,0.13802 1.36283,-0.03457 1.72353,0.6756c0.39151,0.77085 0.20112,1.95032 0.09657,2.908c-0.26955,2.46891 -1.78236,5.34231 -2.62995,7.58502z" fill="#310000" stroke="none" stroke-width="0.5"/><path d="M479.90604,213.26863v-17.5086h43.99166v17.5086z" fill="#ffffff" stroke="#ffffff" stroke-width="0.925"/><path d="M514.96685,204.44483c0,-4.93237 3.99848,-8.93085 8.93085,-8.93085c4.93237,0 8.93086,3.99848 8.93086,8.93085c0,4.93237 -3.99848,8.93085 -8.93086,8.93085c-4.93237,0 -8.93085,-3.99848 -8.93085,-8.93085z" fill="#ffffff" stroke="none" stroke-width="NaN"/><path d="M470.97519,204.51433c0,-4.93237 3.99848,-8.93085 8.93085,-8.93085c4.93237,0 8.93085,3.99848 8.93085,8.93085c0,4.93237 -3.99848,8.93086 -8.93085,8.93086c-4.93237,0 -8.93085,-3.99848 -8.93085,-8.93086z" fill="#ffffff" stroke="none" stroke-width="NaN"/><path d="M480.46066,206.2013c-0.0539,-0.0167 -0.09483,-0.04024 -0.12575,-0.06753c-0.29827,0.05342 -0.58532,0.07506 -0.7789,0.07916l-0.30276,-0.21016c0,0 -0.14326,-0.27197 0.12871,-0.41522c0.13547,-0.07136 0.23901,-0.0397 0.30881,0.01006c0.13642,0.00022 0.31139,0.00034 0.4902,-0.01327c-0.06172,-0.23732 -0.11322,-0.47928 -0.16442,-0.72203c-0.14388,-0.02181 -0.24786,-0.03464 -0.25981,-0.03739c-1.28001,-0.29521 -0.94173,-1.17813 -0.2909,-1.77203c-0.00642,-0.01245 -0.01292,-0.02487 -0.01949,-0.03727c0,0 -0.14326,-0.27197 0.12871,-0.41522c0.20553,-0.10826 0.33756,0.02062 0.3898,0.09004c0.0181,-0.01016 0.0362,-0.02001 0.05429,-0.02953c0,0 0.27197,-0.14326 0.41522,0.12871c0.14326,0.27197 -0.12871,0.41522 -0.12871,0.41522c-0.03032,0.01597 -0.05962,0.03165 -0.08792,0.04703c0.12178,0.33813 0.2065,0.68787 0.28401,1.03896c0.37917,0.11315 0.76276,0.25659 0.92844,0.50958c0.42745,0.6527 -0.00524,1.01435 -0.58835,1.208c-0.01898,0.05009 -0.11979,0.27392 -0.38118,0.19289zM481.02597,205.21915c0.0376,-0.09086 -0.13861,-0.16905 -0.37088,-0.23131c0.03659,0.15722 0.07574,0.31332 0.1202,0.46737c0.11674,-0.0549 0.20716,-0.13089 0.25068,-0.23606zM479.8429,204.09207c-0.04345,-0.16905 -0.09195,-0.33645 -0.14897,-0.50084c-0.29061,0.25238 -0.15254,0.38782 0.14897,0.50084z" fill-opacity="0.58039" fill="#ffffff" stroke="none" stroke-width="0.5"/><text transform="translate(489.44216,208.10965) scale(0.30739,0.30739)" font-size="40" xml:space="preserve" fill="#000000" stroke="none" stroke-width="1" font-family="&quot;DynaPuff&quot;, Pixel" font-weight="normal" text-anchor="start"><tspan x="0" dy="0">Time L</tspan></text><path d="M475.98266,204.38876c0,-2.35393 1.90824,-4.26217 4.26217,-4.26217c2.35393,0 4.26217,1.90824 4.26217,4.26217c0,2.35393 -1.90824,4.26217 -4.26217,4.26217c-2.35393,0 -4.26217,-1.90824 -4.26217,-4.26217z" fill="#000000" stroke="none" stroke-width="0"/></g></g></svg>