<svg version="1.1" xmlns="http://www.w3.org/2000/svg" xmlns:xlink="http://www.w3.org/1999/xlink" width="283.76387" height="96.85624" viewBox="0,0,283.76387,96.85624"><g transform="translate(-178.11807,-13.69268)"><g stroke-miterlimit="10"><path d="M417.2727,62.28344c0,-26.63633 9.98612,-48.22936 22.30462,-48.22936c12.3185,0 22.30462,21.59303 22.30462,48.22936c0,26.63633 -9.98612,48.22936 -22.30462,48.22936c-12.3185,0 -22.30462,-21.59303 -22.30462,-48.22936z" fill="#ffffff" stroke="none" stroke-width="NaN"/><path d="M178.11807,62.31956c0,-26.63633 9.98612,-48.22936 22.30462,-48.22936c12.3185,0 22.30462,21.59303 22.30462,48.22936c0,26.63633 -9.98612,48.22936 -22.30462,48.22936c-12.3185,0 -22.30462,-21.59303 -22.30462,-48.22936z" fill="#ffffff" stroke="none" stroke-width="NaN"/><path d="M200.42269,110.03837v-95.88319h239.15464v95.88321z" fill="#ffffff" stroke="#ffffff" stroke-width="0.925"/><text transform="translate(226.86374,37.65691) scale(0.41859,0.41859)" font-size="40" xml:space="preserve" fill="#000000" stroke="none" stroke-width="1" font-family="Pixel" font-weight="normal" text-anchor="start"><tspan x="0" dy="0">Press [ to downshift</tspan></text><text transform="translate(238.37495,55.94923) scale(0.41859,0.41859)" font-size="40" xml:space="preserve" fill="#000000" stroke="none" stroke-width="1" font-family="Pixel" font-weight="normal" text-anchor="start"><tspan x="0" dy="0">Press ] to upshift</tspan></text><text transform="translate(245.70028,79.75207) scale(0.41859,0.41859)" font-size="40" xml:space="preserve" fill="#000000" stroke="none" stroke-width="1" font-family="Pixel" font-weight="normal" text-anchor="start"><tspan x="0" dy="0">Ensure to clutch </tspan><tspan x="0" dy="48px">   when shifting!</tspan></text><text transform="translate(226.86374,37.65691) scale(0.41859,0.41859)" font-size="40" xml:space="preserve" fill="#ff0000" stroke="none" stroke-width="1" font-family="Pixel" font-weight="normal" text-anchor="start"><tspan x="0" dy="0">              [</tspan></text><text transform="translate(238.37496,55.94923) scale(0.41859,0.41859)" font-size="40" xml:space="preserve" fill="#ff0000" stroke="none" stroke-width="1" font-family="Pixel" font-weight="normal" text-anchor="start"><tspan x="0" dy="0">              ]</tspan></text></g></g></svg>