<svg version="1.1" xmlns="http://www.w3.org/2000/svg" xmlns:xlink="http://www.w3.org/1999/xlink" width="283.76387" height="44.65238" viewBox="0,0,283.76387,44.65238"><g transform="translate(-178.11807,-112.62876)"><g stroke-miterlimit="10"><path d="M178.11807,134.95495c0,-12.3185 9.98612,-22.30462 22.30462,-22.30462c12.3185,0 22.30462,9.98612 22.30462,22.30462c0,12.3185 -9.98612,22.30462 -22.30462,22.30462c-12.3185,0 -22.30462,-9.98612 -22.30462,-22.30462z" fill="#ccfffa" stroke="none" stroke-width="NaN"/><path d="M200.42268,156.81864v-43.72738h239.15464v43.72738z" fill="#ccfffa" stroke="#ccfffa" stroke-width="0.925"/><path d="M417.2727,134.95495c0,-12.3185 9.98612,-22.30462 22.30462,-22.30462c12.3185,0 22.30462,9.98612 22.30462,22.30462c0,12.3185 -9.98612,22.30462 -22.30462,22.30462c-12.3185,0 -22.30462,-9.98612 -22.30462,-22.30462z" fill="#ccfffa" stroke="none" stroke-width="NaN"/><text transform="translate(226.4503,140.43103) scale(0.45634,0.45634)" font-size="40" xml:space="preserve" fill="#000000" stroke="none" stroke-width="1" font-family="Pixel" font-weight="normal" text-anchor="start"><tspan x="0" dy="0">Rare Achievements</tspan></text><text transform="translate(411.30174,152.35456) scale(0.32386,0.32386)" font-size="40" xml:space="preserve" fill="#000000" stroke="none" stroke-width="1" font-family="Pixel" font-weight="normal" text-anchor="start"><tspan x="0" dy="0">pr%</tspan></text></g></g></svg>