<svg version="1.1" xmlns="http://www.w3.org/2000/svg" xmlns:xlink="http://www.w3.org/1999/xlink" width="18.23244" height="14.86744" viewBox="0,0,18.23244,14.86744"><g transform="translate(-351.59459,-188.69571)"><g fill-opacity="0.37255" fill="#ff0000" stroke="none" stroke-width="0.5" stroke-miterlimit="10"><path d="M364.86154,190.68016c0.16175,-0.77153 0.67921,-1.41225 1.37295,-1.74272c0.32534,-0.15499 0.68946,-0.24173 1.07383,-0.24173c1.00066,0 1.864,0.5879 2.26347,1.43714c0.24254,0.30026 0.28856,0.59919 0.2355,0.9904c0.00069,0.02407 0.00103,0.04823 0.00103,0.07246c0,0.4199 -0.10351,0.81561 -0.28642,1.16302l-0.85251,1.70502c-4.37281,5.10161 -4.69374,6.2761 -11.11803,8.86803c-2.35169,0.94881 -7.7809,1.38911 -5.33935,-2.88361c1.27917,-2.23855 7.29073,-2.97528 9.50359,-4.54527c0.92149,-0.65378 2.03512,-3.04096 3.14594,-4.82274z"/></g></g></svg>