<svg version="1.1" xmlns="http://www.w3.org/2000/svg" xmlns:xlink="http://www.w3.org/1999/xlink" width="283.76387" height="44.65238" viewBox="0,0,283.76387,44.65238"><g transform="translate(-178.11808,-157.67381)"><g data-paper-data="{&quot;isPaintingLayer&quot;:true}" fill-rule="nonzero" stroke-linecap="butt" stroke-linejoin="miter" stroke-miterlimit="10" stroke-dasharray="" stroke-dashoffset="0" style="mix-blend-mode: normal"><path d="M178.11809,180c0,-12.3185 9.98612,-22.30462 22.30462,-22.30462c12.3185,0 22.30462,9.98612 22.30462,22.30462c0,12.3185 -9.98612,22.30462 -22.30462,22.30462c-12.3185,0 -22.30462,-9.98612 -22.30462,-22.30462z" fill="#ffffff" stroke="none" stroke-width="NaN"/><path d="M200.4227,201.86369v-43.72738h239.15464v43.72738z" fill="#ffffff" stroke="#ffffff" stroke-width="0.925"/><path d="M417.27272,180c0,-12.3185 9.98612,-22.30462 22.30462,-22.30462c12.3185,0 22.30462,9.98612 22.30462,22.30462c0,12.3185 -9.98612,22.30462 -22.30462,22.30462c-12.3185,0 -22.30462,-9.98612 -22.30462,-22.30462z" fill="#ffffff" stroke="none" stroke-width="NaN"/><text transform="translate(257.81313,178.52125) scale(0.38051,0.38051)" font-size="40" xml:space="preserve" fill="#000000" fill-rule="nonzero" stroke="none" stroke-width="1" stroke-linecap="butt" stroke-linejoin="miter" stroke-miterlimit="10" stroke-dasharray="" stroke-dashoffset="0" font-family="Pixel" font-weight="normal" text-anchor="start" style="mix-blend-mode: normal"><tspan x="0" dy="0">AchievementText</tspan></text><text transform="translate(262.57664,192.08987) scale(0.25727,0.25727)" font-size="40" xml:space="preserve" fill="#000000" fill-rule="nonzero" stroke="none" stroke-width="1" stroke-linecap="butt" stroke-linejoin="miter" stroke-miterlimit="10" stroke-dasharray="" stroke-dashoffset="0" font-family="Pixel" font-weight="normal" text-anchor="start" style="mix-blend-mode: normal"><tspan x="0" dy="0">Achievement Description</tspan></text><g stroke="none"><path d="M184.55828,180c0,-8.76168 7.10275,-15.86443 15.86443,-15.86443c8.76168,0 15.86443,7.10275 15.86443,15.86443c0,8.76168 -7.10275,15.86443 -15.86443,15.86443c-8.76168,0 -15.86443,-7.10275 -15.86443,-15.86443z" fill="#000000" stroke-width="0"/><text transform="translate(192.03366,184.7476) scale(0.27503,0.27503)" font-size="40" xml:space="preserve" fill="#ffffff" fill-rule="nonzero" stroke="none" stroke-width="1" stroke-linecap="butt" stroke-linejoin="miter" stroke-miterlimit="10" stroke-dasharray="" stroke-dashoffset="0" font-family="Pixel" font-weight="normal" text-anchor="start" style="mix-blend-mode: normal"><tspan x="0" dy="0">IMG</tspan></text></g></g></g></svg>