<svg version="1.1" xmlns="http://www.w3.org/2000/svg" xmlns:xlink="http://www.w3.org/1999/xlink" width="75.52857" height="34.33554" viewBox="0,0,75.52857,34.33554"><g transform="translate(-281.99872,-161.87643)"><g data-paper-data="{&quot;isPaintingLayer&quot;:true}" fill-rule="nonzero" stroke="none" stroke-width="0.5" stroke-linecap="butt" stroke-linejoin="miter" stroke-miterlimit="10" stroke-dasharray="" stroke-dashoffset="0" style="mix-blend-mode: normal"><path d="M288.23155,192.14129c0.22751,-0.10362 0.33114,0.12389 0.33114,0.12389l0.07907,0.1736c0.21759,0.48004 1.06044,1.21298 1.1433,1.5923c0.06597,0.30198 -0.53039,0.60261 -0.35457,0.85683c0.08348,0.12071 1.32882,0.57658 1.64418,0.89194c0,0 0.17677,0.17677 0,0.35355c-0.17677,0.17678 -0.35356,0 -0.35356,0c-0.30086,-0.30086 -1.60689,-0.79901 -1.71623,-0.98306c-0.18167,-0.30578 0.3321,-0.67418 0.28871,-1.0272c-0.01501,-0.12215 -0.94887,-1.13201 -1.10688,-1.4771l-0.07907,-0.1736c0,0 -0.10362,-0.22751 0.12389,-0.33114z" fill="#000000"/><path d="M286.07345,169.43752c-0.13321,-0.21156 0.07834,-0.34476 0.07834,-0.34476l0.09027,-0.05685c0.87364,-0.45736 0.24028,-1.88254 1.55797,-2.03742c0.83274,-0.18903 -1.03382,-2.30795 -0.01651,-2.99606c0.24319,-0.16449 0.72252,0.40583 0.86778,0.1507c0.31824,-0.55895 -0.46022,-1.4791 0.39401,-1.98671c0.50872,-0.3023 2.02133,-0.03145 2.62139,-0.03145c0,0 0.25,0 0.25,0.25c0,0.25 -0.25,0.25 -0.25,0.25c-0.55417,0 -1.90291,-0.26069 -2.3786,-0.03145c-0.5112,0.24634 0.05545,1.51708 -0.24326,1.85803c-0.22204,0.25344 -0.68354,-0.10795 -1.01051,-0.02657c-0.30969,0.07708 0.98056,2.52201 -0.13585,3.05373c-0.81788,-0.11615 -0.71372,1.49667 -1.39001,1.97033l-0.09027,0.05684c0,0 -0.21156,0.13322 -0.34476,-0.07834z" fill="#000000"/><path d="M349.08987,172.04703c0.07628,-0.23808 0.31435,-0.16181 0.31435,-0.16181l0.09536,0.03055c0.5681,0.18374 0.94805,0.4161 1.42052,0.78057c0.25901,0.46611 0.56741,1.24111 1.09068,1.49009c0.44792,0.21313 0.26448,-0.48883 0.57529,-0.52725c0.43168,-0.05336 0.91735,0.92138 1.1738,0.57005c0.2604,-0.35673 0.38311,-1.09991 0.82072,-1.04022c0.8946,0.12202 1.7253,1.23131 2.57998,0.76085c0,0 0.22361,-0.1118 0.33541,0.11181c0.11181,0.2236 -0.1118,0.33541 -0.1118,0.33541c-0.80408,0.37464 -2.82513,-1.11435 -3.19842,-0.79274c-0.24537,0.2114 0.16983,0.74509 -0.06366,0.96955c-0.60788,0.58437 -1.36778,-0.44913 -1.45195,-0.42182c-1.05512,0.34237 -1.36391,0.32474 -2.12926,-1.12984c-0.39732,-0.29332 -0.72143,-0.48055 -1.19386,-0.6303l-0.09536,-0.03055c0,0 -0.23808,-0.07627 -0.16181,-0.31435z" fill="#000000"/><path d="M342.92742,168.27926c-0.00003,-0.25 0.24996,-0.25003 0.24996,-0.25003h0.04015c0.12827,-0.00002 1.24735,0.10542 1.3121,0.03071c0.25963,-0.29955 -0.32312,-1.57982 0.01346,-2.00145c0.48444,-0.60686 -1.00301,-2.47344 -1.35194,-3.86916c0,0 -0.06063,-0.24254 0.1819,-0.30317c0.24254,-0.06063 0.30317,0.18191 0.30317,0.18191c0.37519,1.50078 2.19149,3.48957 1.23481,4.32898c-0.24716,0.21687 0.30283,1.65708 -0.01057,1.99828c-0.24923,0.27133 -1.33913,0.13386 -1.68286,0.1339h-0.04015c0,0 -0.25,0.00003 -0.25003,-0.24997z" fill="#000000"/><path d="M344.27308,184.66978l0.01871,-0.41082c0.39731,-2.85527 0.4936,-5.29207 0.4936,-8.29158c0,0 0,-0.25 0.25,-0.25c0.25,0 0.25,0.25 0.25,0.25c0,1.94433 0.59356,4.10423 0.25219,6.02532c-0.14468,0.81423 -0.66265,1.54289 -0.74975,2.32905l-0.01522,0.36973c0,0 0,0.00007 -0.00001,0.0002c0.18997,0.0344 0.19243,0.24225 0.19243,0.24225l0.0041,0.35526c0.00589,0.15754 0.01177,0.31509 0.01766,0.47263c0.64792,2.43296 1.82467,3.29067 3.79612,4.58624c0.53233,0.34984 1.34007,1.30551 1.82639,1.25817c0,0 0.25,0 0.25,0.25c0,0.25 -0.25,0.25 -0.25,0.25c-2.51932,-0.1444 -5.51037,-3.93732 -6.11699,-6.27029c-0.00759,-0.17551 -0.01518,-0.35103 -0.02277,-0.52654l-0.00448,-0.36955c0,0 -0.00006,-0.0054 0.00062,-0.01463c-0.20208,-0.0377 -0.19261,-0.25546 -0.19261,-0.25546z" fill="#000000"/><path d="M332.91639,182.67428c-0.04382,0.24613 -0.28995,0.20231 -0.28995,0.20231l-0.46687,-0.09334c-2.16817,-1.08733 -2.0624,-3.65423 -2.04709,-5.95469c-0.72685,0.79654 -1.82888,1.46748 -2.5675,1.60808c-0.30465,0.14646 -0.62834,0.2569 -0.95737,0.33435l-0.01129,0.00262c0,0 -0.24351,0.0566 -0.30011,-0.18691c-0.0566,-0.24351 0.18691,-0.30011 0.18691,-0.30011l0.01129,-0.00262c0.31649,-0.07252 0.62558,-0.18407 0.9187,-0.32371c0.99767,-0.15141 3.21229,-1.78762 2.94484,-2.77614c-0.21997,-0.81305 -0.99989,-0.69181 -0.9843,-1.67524c0.01513,-0.95411 0.90572,-2.16692 1.28326,-3.15464c1.32843,-0.37298 1.63613,1.01966 2.11139,1.33745c0.04535,-0.04609 0.10844,-0.07467 0.17821,-0.07467c0.06612,0 0.12625,0.02567 0.17096,0.06759c0.28994,-0.24953 0.80811,-1.10719 0.98687,-1.29792c0.72623,-0.77483 2.17527,-2.11089 3.08699,-2.58737c0,0 0.22361,-0.1118 0.33541,0.1118c0.1118,0.22361 -0.1118,0.33541 -0.1118,0.33541c-1.29306,0.60845 -3.07356,3.91932 -4.37528,4.00412c-1.02486,0.06677 -0.86566,-1.7779 -2.04146,-1.53103c-0.22755,0.92166 -1.00727,1.68374 -1.09876,2.34223c-0.16377,1.17869 0.66783,0.96136 0.94153,1.9931c0.10224,0.38541 -0.02566,0.81315 -0.28974,1.23174c0.08256,0.07377 0.08256,0.19321 0.08256,0.19321c0,2.17393 -0.29249,4.84367 1.76815,5.8555l0.33212,0.0489c0,0 0.24613,0.04382 0.20231,0.28995z" fill="#ffffff"/><path d="M329.83986,185.19971c0.24974,-0.01141 0.26115,0.23833 0.26115,0.23833l-0.02003,0.16574c1.11078,1.99116 3.17184,-0.64042 4.33229,-1.53889c0.66105,-0.51181 1.73945,-1.18978 2.13588,-1.90549c0.89413,-1.61424 -1.13532,-4.84204 2.27164,-4.90439c0,0 0.25,0 0.25,0.25c0,0.25 -0.25,0.25 -0.25,0.25c-2.85125,-0.0696 -1.13221,3.25667 -1.82871,4.63637c-0.39776,0.7879 -1.57407,1.52794 -2.27271,2.06886c-1.45488,1.12643 -3.64499,3.8351 -5.07236,1.39188l-0.04548,-0.39127c0,0 -0.01141,-0.24974 0.23833,-0.26115z" fill="#ffffff"/><path d="M294.17249,185.6597c-0.21025,0.13526 -0.34551,-0.07499 -0.34551,-0.07499l-0.29602,-0.53361c0.00001,-1.63061 -0.34345,-3.70976 0.59387,-4.8237c0.3389,-0.40276 0.10217,-1.13625 0.64013,-1.35779l0.00183,-0.00617l-0.0373,0.00707c-1.67944,-1.04416 -3.78409,-1.27851 -5.64048,-1.89713c0,0 -0.23717,-0.07906 -0.15811,-0.31623c0.07906,-0.23717 0.31623,-0.15811 0.31623,-0.15811c1.86665,0.6224 3.99446,0.85532 5.6804,1.91102l0.44959,0.13293c0.10629,0.02879 0.18448,0.12593 0.18448,0.24133c0,0.09899 -0.05754,0.18455 -0.14099,0.22505l-0.27227,0.13914c-1.46527,1.57126 -1.11734,3.67035 -1.11736,5.90262l0.21652,0.26309c0,0 0.13526,0.21025 -0.07499,0.34551z" fill="#ffffff"/><path d="M317.87976,192.91963c-0.03829,-0.24705 0.20877,-0.28534 0.20877,-0.28534l0.1785,-0.02766c0.82273,-0.117 1.23545,-1.50476 2.01012,-1.4214c1.10328,0.11873 2.62458,1.45957 4.0002,1.44611c0,0 0.25,0 0.25,0.25c0,0.25 -0.25,0.25 -0.25,0.25c-1.34374,-0.01089 -3.09893,-1.05993 -4.09373,-1.45494c-0.72088,-0.28624 -1.07478,1.29781 -1.84002,1.42433l-0.1785,0.02766c0,0 -0.24705,0.03829 -0.28534,-0.20877z" fill="#ffffff"/><path d="M316.30991,163.91526c-0.24894,-0.023 -0.22594,-0.27194 -0.22594,-0.27194l0.00033,-0.00357c0.04978,-0.22603 0.09955,-0.45206 0.14933,-0.67809c1.36649,0.15162 2.53923,1.15668 3.67228,1.75533c1.36121,0.7192 3.33892,-1.73143 4.11516,-1.81322c0,0 0.25,0 0.25,0.25c0,0.25 -0.25,0.25 -0.25,0.25c-0.23883,-0.05217 -2.23996,1.60979 -3.18591,1.76069c-1.48456,0.23681 -3.05193,-1.09947 -4.3103,-1.79637c0.01911,0.10589 0.03821,0.21178 0.05732,0.31767l-0.00033,0.00357c0,0 -0.023,0.24894 -0.27194,0.22594z" fill="#ffffff"/><path d="M308.04728,166.72045c-0.23513,-0.08492 -0.15021,-0.32006 -0.15021,-0.32006l0.21435,-0.46409c0.44702,-0.27944 0.56996,-0.93183 0.30972,-1.38936c0,0 -0.1118,-0.22361 0.1118,-0.33541c0.22361,-0.1118 0.33541,0.1118 0.33541,0.1118c0.34246,0.75043 0.1852,1.5111 -0.46554,2.01928l-0.03548,0.22763c0,0 -0.08492,0.23513 -0.32006,0.15021z" fill="#ffffff"/><path d="M303.52419,171.61708c0.24995,0.00488 0.24507,0.25484 0.24507,0.25484l-0.00851,0.43004c-0.05974,1.2019 -0.96981,6.18254 0.56206,5.0946c1.56807,-1.11256 3.34196,-2.41135 5.03701,-3.31195c0.21075,-0.11197 1.4962,-0.67864 1.6773,-0.51332c0.65127,0.59453 -1.68197,1.4649 -1.34327,2.27909c2.7405,0.92234 5.09339,3.0575 7.76569,4.24518c0,0 0.22845,0.10153 0.12692,0.32999c-0.10153,0.22845 -0.32999,0.12692 -0.32999,0.12692c-2.80286,-1.24571 -5.22382,-3.0482 -7.95883,-4.39711c-0.04182,-0.47266 0.49379,-0.81189 0.77513,-1.19399c0.23623,-0.32083 1.02022,-1.12945 0.64036,-1.00925c-1.97792,0.62586 -4.37902,2.62802 -6.10081,3.85209c-2.48894,1.76765 -1.41916,-4.15155 -1.35096,-5.52705l0.00799,-0.41501c0,0 0.00488,-0.24995 0.25484,-0.24507z" fill="#000000"/><path d="M308.41587,187.65533c0.10057,-0.22888 0.32945,-0.12831 0.32945,-0.12831l0.12542,0.05511c2.38988,1.08427 6.18854,-0.84505 8.74353,-0.84505c0,0 0.25,0 0.25,0.25c0,0.25 -0.25,0.25 -0.25,0.25c-2.71758,0 -6.36404,1.90701 -8.94467,0.80281l-0.12542,-0.05511c0,0 -0.22888,-0.10057 -0.12831,-0.32945z" fill="#000000"/><path d="M286.08651,179.5526c0.00259,0.24999 -0.24739,0.25258 -0.24739,0.25258l-0.43964,0.00454c-1.32494,0.03257 -2.09846,0.97121 -3.15076,1.02057c0,0 -0.25,0 -0.25,-0.25c0,-0.25 0.25,-0.25 0.25,-0.25c0.73226,0.05526 2.00518,-0.99252 3.13847,-1.02041l0.44675,-0.00466c0,0 0.24999,-0.00259 0.25258,0.24739z" fill="#000000"/><path d="M338.36604,187.7568c-0.0009,0.25 -0.25089,0.2491 -0.25089,0.2491l-0.12253,-0.00044c0.19962,0.12332 0.40827,0.24615 0.64854,0.35481c0.53528,0.25519 1.49501,0.21299 1.94439,0.5153c0.58916,0.39635 0.33964,1.33194 0.86531,1.81386c1.12176,1.02843 2.35144,1.68564 4.09708,1.68564c0,0 0.25,0 0.25,0.25c0,0.25 -0.25,0.25 -0.25,0.25c-1.88945,0 -3.22829,-0.75674 -4.43031,-1.81286c-0.42307,-0.37172 -0.42051,-1.55603 -0.79736,-1.76281c-0.48768,-0.2676 -1.33531,-0.22709 -1.89224,-0.48682c-0.62842,-0.30566 -1.00086,-0.68738 -1.60565,-0.89879c-0.14659,-0.02913 -0.29027,-0.06596 -0.43414,-0.1115c-0.02135,-0.00367 -0.04299,-0.00715 -0.06493,-0.01043l-0.01329,-0.00107l-0.00712,0.04208l-0.48891,-0.08267c-0.12024,-0.01813 -0.21241,-0.1219 -0.21241,-0.24719c0,-0.13807 0.11193,-0.25 0.25,-0.25c0.00773,0 0.01538,0.00035 0.02293,0.00104l0.49554,0.03996l-0.00024,0.00297l0.00916,-0.00209c0.13718,0.02159 0.26403,0.05055 0.38297,0.08543c0.34808,0.01689 0.72086,0.12393 1.06954,0.12456l0.28545,0.00102c0,0 0.25,0.0009 0.2491,0.25089z" fill="#000000"/></g></g></svg>