<svg version="1.1" xmlns="http://www.w3.org/2000/svg" xmlns:xlink="http://www.w3.org/1999/xlink" width="79.32264" height="30.5" viewBox="0,0,79.32264,30.5"><g transform="translate(-247.53968,-163.46893)"><g stroke-miterlimit="10"><text transform="translate(267.72472,188.71893) scale(0.5,0.5)" font-size="40" xml:space="preserve" fill="#ffffff" stroke="none" stroke-width="1" font-family="Pixel" font-weight="normal" text-anchor="start"><tspan x="0" dy="0">/</tspan></text><g stroke="none"><path d="M262.84598,180c0,5.78584 -3.41116,10.47619 -7.61905,10.47619c-4.20788,0 -7.61905,-4.69035 -7.61905,-10.47619c0,-5.78584 3.41116,-10.47619 7.61905,-10.47619c4.20788,0 7.61905,4.69035 7.61905,10.47619z" fill="#4c69ff" stroke-width="none"/><path d="M252.88342,169.80008c0.01152,-0.01021 0.02296,-0.02014 0.03432,-0.02978c0.03294,-0.02371 0.06588,-0.04743 0.09882,-0.07117c0.10503,-0.03776 0.21078,-0.07432 0.31762,-0.11003c0.00143,0.0005 0.00285,0.00103 0.00426,0.00158c0.93791,0.36345 0.42771,1.62502 0.32166,2.25477c-0.05825,0.76691 -0.53042,2.34574 -0.20437,3.06101c0.14469,0.31741 1.09917,0.1562 1.32677,0.507c0.52011,0.80166 -0.20692,3.06712 -0.44677,4.15311c0.0941,0.04147 0.18525,0.12755 0.24141,0.29488c0.1577,0.4699 -0.27598,0.64077 -0.27598,0.64077c-0.99509,0.39119 -5.61443,1.59931 -6.47467,0.57658c-0.1924,-0.22874 -0.24154,-0.57561 -0.20958,-0.97197c-0.44303,-2.75834 1.09251,-6.47159 2.75257,-8.44544c0.82034,-0.65721 1.66373,-1.25487 2.50679,-1.86124c0.00238,-0.00003 0.00477,-0.00005 0.00716,-0.00006z" fill="#ffffff" stroke-width="0.5"/><path d="M253.81777,169.51293c0.0033,-0.02985 0.00915,-0.05761 0.01709,-0.08341c0.25193,-0.07697 0.51225,-0.15231 0.78511,-0.23012l0.46983,-0.19483c0,0 0.01645,-0.00705 0.04318,-0.02151c2.69685,-0.07056 2.19727,2.02821 2.01417,4.22537c-0.00203,1.09508 -0.76692,2.12165 -1.76176,2.46188c-0.03777,1.33588 -0.06993,2.67189 -0.06993,4.01089v0.18868c0,0 0,0.5 -0.5,0.5c-0.5,0 -0.5,-0.5 -0.5,-0.5v-0.18868c0,-1.30706 0.03063,-2.61095 0.06721,-3.91455c-0.35768,-0.05241 -0.72189,-0.20039 -1.07365,-0.46594c-1.27408,-0.96179 -0.58528,-4.86565 0.50875,-5.78778z" fill="#000000" stroke-width="0.5"/><text transform="translate(250.4599,186.84956) scale(0.11235,0.11235)" font-size="40" xml:space="preserve" fill="#ffffff" stroke-width="1" font-family="Pixel" font-weight="normal" text-anchor="start"><tspan x="0" dy="0">LMB</tspan></text></g><g stroke-width="1"><path d="M280.54945,188.79926v-17.59852h45.81286v17.59852z" fill="#4c69ff" stroke="#ffffff"/><text transform="translate(286.08682,184.36476) scale(0.26214,0.26214)" font-size="40" xml:space="preserve" fill="#ffffff" stroke="none" font-family="Pixel" font-weight="normal" text-anchor="start"><tspan x="0" dy="0">ENTER</tspan></text></g></g></g></svg>